<?xml version="1.0" encoding="UTF-8" standalone="no"?>
<svg width="73px" height="74px" viewBox="0 0 73 74" version="1.1" xmlns="http://www.w3.org/2000/svg" xmlns:xlink="http://www.w3.org/1999/xlink">
    <!-- Generator: Sketch 42 (36781) - http://www.bohemiancoding.com/sketch -->
    <title>Page 1</title>
    <desc>Created with Sketch.</desc>
    <defs>
        <path d="M6.41001823,2.84217094e-14 L66.5488434,2.84217094e-14 C70.2107236,0.790001543 72.97943,4.1049234 72.97943,8.04354 L72.97943,65.599098 C72.97943,69.3044006 70.529034,72.4577105 67.1898201,73.47606 L5.76904149,73.47606 C2.60746605,72.5118845 0.242658117,69.6338572 -1e-16,66.1855157 L-1.67332732e-17,7.4571227 C0.258796412,3.77944692 2.93140179,0.750464723 6.41001823,0 L6.41001823,2.84217094e-14 Z M64.86832,29.42132 L64.86832,17.08799 L40.53499,45.04354 L24.31276,28.5991 L8.090542,45.04354 L8.090542,57.37688 L24.31276,40.93243 L40.53499,57.37688 L64.86832,29.42132 Z" id="path-1"></path>
    </defs>
    <g id="Active" stroke="none" stroke-width="1" fill="none" fill-rule="evenodd">
        <g id="HP---Visual-Design" transform="translate(-615.000000, -4425.000000)">
            <g id="Gives-you-insights" transform="translate(-37.000000, 4006.000000)">
                <g id="Page-1" transform="translate(652.000000, 419.000000)">
                    <mask id="mask-2" fill="white">
                        <use xlink:href="#path-1"></use>
                    </mask>
                    <g id="Clip-2"></g>
                    <polygon id="Fill-1" fill="#3DBAEF" mask="url(#mask-2)" points="-20.29835 94.37688 93.25725 94.37688 93.25725 -20.73422 -20.29835 -20.73422"></polygon>
                </g>
            </g>
        </g>
    </g>
</svg>