<?xml version="1.0" encoding="UTF-8" standalone="no"?>
<svg width="74px" height="74px" viewBox="0 0 74 74" version="1.1" xmlns="http://www.w3.org/2000/svg" xmlns:xlink="http://www.w3.org/1999/xlink">
    <!-- Generator: Sketch 42 (36781) - http://www.bohemiancoding.com/sketch -->
    <title>Page 1</title>
    <desc>Created with Sketch.</desc>
    <defs>
        <path d="M3.88578059e-16,40.93243 L7.814507,40.93243 L7.814507,32.71021 L0,32.71021 L3.88578059e-16,40.93243 L3.88578059e-16,40.93243 Z M3.88578059e-16,57.37688 L7.814507,57.37688 L7.814507,49.15465 L0,49.15465 L3.88578059e-16,57.37688 L3.88578059e-16,57.37688 Z M7.814507,73.47606 L7.814507,65.599098 L0,65.599098 L3.88578059e-16,68.1507706 C0.837087737,70.6956054 2.8890158,72.7022281 5.46120517,73.47606 L7.814507,73.47606 L7.814507,73.47606 Z M3.88578059e-16,24.48799 L7.814507,24.48799 L7.814507,16.26577 L0,16.26577 L3.88578059e-16,24.48799 Z M57.14784,73.47606 L57.14784,65.599098 L48.92562,65.599098 L48.92562,73.47606 L57.14784,73.47606 Z M22.5554061,4.26325641e-14 L67.0736073,0 C70.3435372,0.695909389 72.9108848,3.35110187 73.47606,6.66598278 L73.47606,50.53221 C72.8158172,54.4046911 69.4231849,57.37688 65.37006,57.37688 L61.25895,57.37688 L44.81451,57.37688 L24.25895,57.37688 C19.73673,57.37688 16.03673,53.67688 16.03673,49.15465 L16.03673,24.48799 L16.03673,16.26577 L16.03673,8.04354 C16.03673,4.1049234 18.8433639,0.790001543 22.5554061,4.26325641e-14 L22.5554061,4.26325641e-14 Z M40.7034,73.47606 L40.7034,65.599098 L32.48117,65.599098 L32.48117,73.47606 L40.7034,73.47606 Z M24.25895,73.47606 L24.25895,65.599098 L16.03673,65.599098 L16.03673,73.47606 L24.25895,73.47606 L24.25895,73.47606 Z M65.37006,49.15465 L65.37006,8.04354 L24.25895,8.04354 L24.25895,49.15465 L65.37006,49.15465 Z" id="path-1"></path>
    </defs>
    <g id="Active" stroke="none" stroke-width="1" fill="none" fill-rule="evenodd">
        <g id="HP---Visual-Design" transform="translate(-1215.000000, -4425.000000)">
            <g id="Gives-you-insights" transform="translate(-37.000000, 4006.000000)">
                <g id="Page-1" transform="translate(1252.000000, 419.000000)">
                    <mask id="mask-2" fill="white">
                        <use xlink:href="#path-1"></use>
                    </mask>
                    <g id="Clip-2"></g>
                    <polygon id="Fill-1" fill="#72D5C6" mask="url(#mask-2)" points="-20.96327 94.37688 94.14783 94.37688 94.14783 -20.73422 -20.96327 -20.73422"></polygon>
                </g>
            </g>
        </g>
    </g>
</svg>