<?xml version="1.0" encoding="UTF-8" standalone="no"?>
<svg width="74px" height="74px" viewBox="0 0 74 74" version="1.1" xmlns="http://www.w3.org/2000/svg" xmlns:xlink="http://www.w3.org/1999/xlink">
    <!-- Generator: Sketch 42 (36781) - http://www.bohemiancoding.com/sketch -->
    <title>Page 1</title>
    <desc>Created with Sketch.</desc>
    <defs>
        <path d="M31.5035102,3.69445135e-13 C35.4894454,0.814053785 38.41107,4.3185871 38.41107,8.63084 L38.41107,13.91656 L52.31583,13.91656 C56.13964,13.91656 59.26821,17.08799 59.26821,20.96418 L59.26821,35.05942 L64.4825,35.05942 C69.34916,35.05942 73.17297,38.93561 73.17297,43.86894 C73.17297,48.80227 69.34916,52.67846 64.4825,52.67846 L59.26821,52.67846 L59.26821,66.773702 C59.26821,69.8920368 57.2434142,72.5542532 54.4607567,73.47606 L39.10631,73.47606 L39.10631,68.535606 C39.10631,63.24989 34.93488,59.02132 29.72059,59.02132 C24.50631,59.02132 20.33488,63.24989 20.33488,68.535606 L20.33488,73.47606 L4.98042811,73.47606 C2.19777031,72.5542532 0.1729736,69.8920368 0.1729736,66.773702 L0.1729736,53.38323 L5.387259,53.38323 C10.60155,53.38323 14.77297,49.15465 14.77297,43.86894 C14.77297,38.58323 10.60155,34.35465 5.387259,34.35465 L0.1729736,34.35465 L0.1729736,20.96418 C0.1729736,17.08799 3.301545,13.91656 7.125355,13.91656 L21.03012,13.91656 L21.03012,8.63084 C21.03012,4.3185871 23.9517446,0.814053785 27.9376731,-6.3665e-12 L31.5035102,3.5523428e-13 L31.5035102,3.69445135e-13 Z" id="path-1"></path>
    </defs>
    <g id="Active" stroke="none" stroke-width="1" fill="none" fill-rule="evenodd">
        <g id="HP---Visual-Design" transform="translate(-313.000000, -4425.000000)">
            <g id="Gives-you-insights" transform="translate(-37.000000, 4006.000000)">
                <g id="Page-1" transform="translate(350.000000, 419.000000)">
                    <mask id="mask-2" fill="white">
                        <use xlink:href="#path-1"></use>
                    </mask>
                    <g id="Clip-2"></g>
                    <polygon id="Fill-1" fill="#E472A5" mask="url(#mask-2)" points="-17.20798 91.44037 90.55392 91.44037 90.55392 -17.79773 -17.20798 -17.79773"></polygon>
                </g>
            </g>
        </g>
    </g>
</svg>