<svg width="1234" height="481" viewBox="0 0 1234 481" xmlns="http://www.w3.org/2000/svg" xmlns:xlink="http://www.w3.org/1999/xlink"><title>Process</title><defs><circle id="a" cx="36" cy="36" r="36"/><filter x="-50%" y="-50%" width="200%" height="200%" filterUnits="objectBoundingBox" id="b"><feOffset in="SourceAlpha" result="shadowOffsetOuter1"/><feGaussianBlur stdDeviation="4.5" in="shadowOffsetOuter1" result="shadowBlurOuter1"/><feColorMatrix values="0 0 0 0 0.239215686 0 0 0 0 0.505882353 0 0 0 0 0.647058824 0 0 0 0.2 0" in="shadowBlurOuter1"/></filter><circle id="d" cx="36" cy="36" r="36"/><filter x="-50%" y="-50%" width="200%" height="200%" filterUnits="objectBoundingBox" id="e"><feOffset in="SourceAlpha" result="shadowOffsetOuter1"/><feGaussianBlur stdDeviation="4.5" in="shadowOffsetOuter1" result="shadowBlurOuter1"/><feColorMatrix values="0 0 0 0 0.239215686 0 0 0 0 0.505882353 0 0 0 0 0.647058824 0 0 0 0.2 0" in="shadowBlurOuter1"/></filter><circle id="g" cx="36" cy="36" r="36"/><filter x="-50%" y="-50%" width="200%" height="200%" filterUnits="objectBoundingBox" id="h"><feOffset in="SourceAlpha" result="shadowOffsetOuter1"/><feGaussianBlur stdDeviation="4.5" in="shadowOffsetOuter1" result="shadowBlurOuter1"/><feColorMatrix values="0 0 0 0 0.239215686 0 0 0 0 0.505882353 0 0 0 0 0.647058824 0 0 0 0.2 0" in="shadowBlurOuter1"/></filter><circle id="j" cx="36" cy="36" r="36"/><filter x="-50%" y="-50%" width="200%" height="200%" filterUnits="objectBoundingBox" id="k"><feOffset in="SourceAlpha" result="shadowOffsetOuter1"/><feGaussianBlur stdDeviation="4.5" in="shadowOffsetOuter1" result="shadowBlurOuter1"/><feColorMatrix values="0 0 0 0 0.239215686 0 0 0 0 0.505882353 0 0 0 0 0.647058824 0 0 0 0.2 0" in="shadowBlurOuter1"/></filter><circle id="m" cx="36" cy="36" r="36"/><filter x="-50%" y="-50%" width="200%" height="200%" filterUnits="objectBoundingBox" id="n"><feOffset in="SourceAlpha" result="shadowOffsetOuter1"/><feGaussianBlur stdDeviation="4.5" in="shadowOffsetOuter1" result="shadowBlurOuter1"/><feColorMatrix values="0 0 0 0 0.239215686 0 0 0 0 0.505882353 0 0 0 0 0.647058824 0 0 0 0.2 0" in="shadowBlurOuter1"/></filter><circle id="p" cx="36" cy="36" r="36"/><filter x="-50%" y="-50%" width="200%" height="200%" filterUnits="objectBoundingBox" id="q"><feOffset in="SourceAlpha" result="shadowOffsetOuter1"/><feGaussianBlur stdDeviation="4.5" in="shadowOffsetOuter1" result="shadowBlurOuter1"/><feColorMatrix values="0 0 0 0 0.239215686 0 0 0 0 0.505882353 0 0 0 0 0.647058824 0 0 0 0.2 0" in="shadowBlurOuter1"/></filter><circle id="s" cx="36" cy="36" r="36"/><filter x="-50%" y="-50%" width="200%" height="200%" filterUnits="objectBoundingBox" id="t"><feOffset in="SourceAlpha" result="shadowOffsetOuter1"/><feGaussianBlur stdDeviation="4.5" in="shadowOffsetOuter1" result="shadowBlurOuter1"/><feColorMatrix values="0 0 0 0 0.239215686 0 0 0 0 0.505882353 0 0 0 0 0.647058824 0 0 0 0.2 0" in="shadowBlurOuter1"/></filter><circle id="v" cx="36" cy="36" r="36"/><filter x="-50%" y="-50%" width="200%" height="200%" filterUnits="objectBoundingBox" id="w"><feOffset in="SourceAlpha" result="shadowOffsetOuter1"/><feGaussianBlur stdDeviation="4.5" in="shadowOffsetOuter1" result="shadowBlurOuter1"/><feColorMatrix values="0 0 0 0 0.239215686 0 0 0 0 0.505882353 0 0 0 0 0.647058824 0 0 0 0.2 0" in="shadowBlurOuter1"/></filter><circle id="y" cx="36" cy="36" r="36"/><filter x="-50%" y="-50%" width="200%" height="200%" filterUnits="objectBoundingBox" id="z"><feOffset in="SourceAlpha" result="shadowOffsetOuter1"/><feGaussianBlur stdDeviation="4.5" in="shadowOffsetOuter1" result="shadowBlurOuter1"/><feColorMatrix values="0 0 0 0 0.239215686 0 0 0 0 0.505882353 0 0 0 0 0.647058824 0 0 0 0.2 0" in="shadowBlurOuter1"/></filter><circle id="B" cx="36" cy="36" r="36"/><filter x="-50%" y="-50%" width="200%" height="200%" filterUnits="objectBoundingBox" id="C"><feOffset in="SourceAlpha" result="shadowOffsetOuter1"/><feGaussianBlur stdDeviation="4.5" in="shadowOffsetOuter1" result="shadowBlurOuter1"/><feColorMatrix values="0 0 0 0 0.239215686 0 0 0 0 0.505882353 0 0 0 0 0.647058824 0 0 0 0.2 0" in="shadowBlurOuter1"/></filter><circle id="E" cx="36" cy="36" r="36"/><filter x="-50%" y="-50%" width="200%" height="200%" filterUnits="objectBoundingBox" id="F"><feOffset in="SourceAlpha" result="shadowOffsetOuter1"/><feGaussianBlur stdDeviation="4.5" in="shadowOffsetOuter1" result="shadowBlurOuter1"/><feColorMatrix values="0 0 0 0 0.239215686 0 0 0 0 0.505882353 0 0 0 0 0.647058824 0 0 0 0.2 0" in="shadowBlurOuter1"/></filter><circle id="H" cx="36" cy="36" r="36"/><filter x="-50%" y="-50%" width="200%" height="200%" filterUnits="objectBoundingBox" id="I"><feOffset in="SourceAlpha" result="shadowOffsetOuter1"/><feGaussianBlur stdDeviation="4.5" in="shadowOffsetOuter1" result="shadowBlurOuter1"/><feColorMatrix values="0 0 0 0 0.239215686 0 0 0 0 0.505882353 0 0 0 0 0.647058824 0 0 0 0.2 0" in="shadowBlurOuter1"/></filter><circle id="K" cx="36" cy="36" r="36"/><filter x="-50%" y="-50%" width="200%" height="200%" filterUnits="objectBoundingBox" id="L"><feOffset in="SourceAlpha" result="shadowOffsetOuter1"/><feGaussianBlur stdDeviation="4.5" in="shadowOffsetOuter1" result="shadowBlurOuter1"/><feColorMatrix values="0 0 0 0 0.239215686 0 0 0 0 0.505882353 0 0 0 0 0.647058824 0 0 0 0.2 0" in="shadowBlurOuter1"/></filter></defs><g transform="translate(9 -7)" fill="none" fill-rule="evenodd"><text font-family="NunitoSans-SemiBold, Nunito Sans" font-size="12" font-weight="500" fill="#868686"><tspan x="80" y="60">Ask Head of HR </tspan> <tspan x="80" y="76">for HRIS data</tspan></text><text font-family="NunitoSans-SemiBold, Nunito Sans" font-size="12" font-weight="500" fill="#868686"><tspan x="789" y="262">Head of D+I sanitizes data and </tspan> <tspan x="789" y="278">reviews it in spreadsheet</tspan></text><g transform="translate(434 323)"><mask id="c" fill="#fff"><use xlink:href="#a"/></mask><use filter="url(#b)" xlink:href="#a" fill="#000"/><image mask="url(#c)" x="-14" y="-7" width="95" height="82" xlink:href="./head-3.jpg"/></g><text font-family="NunitoSans-SemiBold, Nunito Sans" font-size="12" font-weight="500" fill="#868686"><tspan x="1012" y="66">Multiple meetings, hours back </tspan> <tspan x="1012" y="82">and forth with PA to understand </tspan> <tspan x="1012" y="98">+ segment data</tspan></text><text font-family="NunitoSans-SemiBold, Nunito Sans" font-size="12" font-weight="500" fill="#868686"><tspan x="767" y="432">Possibly go back to PA </tspan> <tspan x="767" y="448">to pull further data</tspan></text><text font-family="NunitoSans-SemiBold, Nunito Sans" font-size="12" font-weight="500" fill="#868686"><tspan x="1103" y="346">See snapshot graphs </tspan> <tspan x="1103" y="362">and insights from data</tspan></text><text font-family="NunitoSans-SemiBold, Nunito Sans" font-size="12" font-weight="500" fill="#868686"><tspan x="443" y="76">Meet with Head of HR to </tspan> <tspan x="443" y="92">discuss D+I needs</tspan></text><text font-family="NunitoSans-SemiBold, Nunito Sans" font-size="12" font-weight="500" fill="#868686"><tspan x="126" y="406">Head of HR meets with </tspan> <tspan x="126" y="422">People Analytics to pull data</tspan></text><text font-family="NunitoSans-SemiBold, Nunito Sans" font-size="12" font-weight="500" fill="#868686"><tspan x="474" y="455">People Analytics pulls data, </tspan> <tspan x="474" y="471">shares with Head of HR + </tspan> <tspan x="474" y="487">Head of D+I</tspan></text><g transform="translate(0 55)"><mask id="f" fill="#fff"><use xlink:href="#d"/></mask><use filter="url(#e)" xlink:href="#d" fill="#000"/><image mask="url(#f)" x="-14" y="-7" width="95" height="82" xlink:href="./head-1.jpg"/></g><g transform="translate(44 91)"><mask id="i" fill="#fff"><use xlink:href="#g"/></mask><use filter="url(#h)" xlink:href="#g" fill="#000"/><image mask="url(#i)" x="-14" y="-7" width="95" height="82" xlink:href="./head-2.jpg"/></g><g transform="translate(360 31)"><mask id="l" fill="#fff"><use xlink:href="#j"/></mask><use filter="url(#k)" xlink:href="#j" fill="#000"/><image mask="url(#l)" x="-14" y="-7" width="95" height="82" xlink:href="./head-2.jpg"/></g><g transform="translate(182 311)"><mask id="o" fill="#fff"><use xlink:href="#m"/></mask><use filter="url(#n)" xlink:href="#m" fill="#000"/><image mask="url(#o)" x="-14" y="-7" width="95" height="82" xlink:href="./head-2.jpg"/></g><g transform="translate(371 320)"><mask id="r" fill="#fff"><use xlink:href="#p"/></mask><use filter="url(#q)" xlink:href="#p" fill="#000"/><image mask="url(#r)" x="-14" y="-7" width="95" height="82" xlink:href="./head-2.jpg"/></g><g transform="translate(391 372)"><mask id="u" fill="#fff"><use xlink:href="#s"/></mask><use filter="url(#t)" xlink:href="#s" fill="#000"/><image mask="url(#u)" x="-14" y="-7" width="95" height="82" xlink:href="./head-1.jpg"/></g><g transform="translate(711 214)"><mask id="x" fill="#fff"><use xlink:href="#v"/></mask><use filter="url(#w)" xlink:href="#v" fill="#000"/><image mask="url(#x)" x="-14" y="-7" width="95" height="82" xlink:href="./head-1.jpg"/></g><circle stroke="#72D5C6" stroke-width="3" stroke-linecap="round" stroke-linejoin="round" stroke-dasharray="1,9" cx="913" cy="74" r="65"/><g transform="translate(1022 302)"><mask id="A" fill="#fff"><use xlink:href="#y"/></mask><use filter="url(#z)" xlink:href="#y" fill="#000"/><image mask="url(#A)" x="-14" y="-7" width="95" height="82" xlink:href="./head-1.jpg"/></g><g transform="translate(827 40)"><mask id="D" fill="#fff"><use xlink:href="#B"/></mask><use filter="url(#C)" xlink:href="#B" fill="#000"/><image mask="url(#D)" x="-14" y="-7" width="95" height="82" xlink:href="./head-1.jpg"/></g><g transform="translate(682 383)"><mask id="G" fill="#fff"><use xlink:href="#E"/></mask><use filter="url(#F)" xlink:href="#E" fill="#000"/><image mask="url(#G)" x="-14" y="-7" width="95" height="82" xlink:href="./head-3.jpg"/></g><g transform="translate(929 40)"><mask id="J" fill="#fff"><use xlink:href="#H"/></mask><use filter="url(#I)" xlink:href="#H" fill="#000"/><image mask="url(#J)" x="-14" y="-7" width="95" height="82" xlink:href="./head-3.jpg"/></g><g transform="translate(119 286)"><mask id="M" fill="#fff"><use xlink:href="#K"/></mask><use filter="url(#L)" xlink:href="#K" fill="#000"/><image mask="url(#M)" x="-14" y="-7" width="95" height="82" xlink:href="./head-3.jpg"/></g><path d="M133 104.497s88.19-103.112 226.49-33.17M212 305.772S341.317 181.57 447.102 326.34M853.014 117s0 91.37-73.014 108.47M738 378.093s86.477-118.558 284.823-74.13M506 337.87S570.59 241.427 711.282 234M189 299.497S198.27 91.55 361 85" stroke="#72D5C6" stroke-width="3" stroke-linecap="round" stroke-linejoin="round" stroke-dasharray="1,9"/><path d="M822.65 74.12s-122.86-6.208-164.51 70.464c-41.65 76.672-28.817 164.896 33.95 236.97" stroke="#72D5C6" stroke-width="3" stroke-linecap="round" stroke-linejoin="round" stroke-dasharray="1,9"/><path d="M1031 36c0-4.41-3.59-8-8-8s-8 3.59-8 8 3.59 8 8 8 8-3.59 8-8m2 0c0 5.523-4.477 10-10 10s-10-4.477-10-10 4.477-10 10-10 10 4.477 10 10m-4 1c0 .552-.448 1-1 1h-4c-1.105 0-2-.895-2-2v-5c0-.552.448-1 1-1s1 .448 1 1v4c0 .55.45 1 1 1h3c.552 0 1 .448 1 1M491 425.874c-1.102 0-2-.897-2-2s.898-2 2-2c1.103 0 2 .897 2 2s-.897 2-2 2zm-8.86 1.676c-.533-.683-1.143-1.186-2.142-1.41v-4.282c1-.24 1.72-.793 2.258-1.55l4.823 2.784c-.105.52-.11 1.052.008 1.61l-4.948 2.848zm-3.138 4.448c-1.103 0-2-.897-2-2 0-1.102.897-2 2-2 1.102 0 2 .898 2 2 0 1.103-.898 2-2 2zM476.998 418c0-1.103 1-2 2-2 3 0 3 4 0 4-1 0-2-.898-2-2zM491 419.874c-1.22 0-2.3.56-3.033 1.42l-5.007-2.89c.253-2.485-1.69-4.404-3.958-4.404-2.21 0-4.002 1.79-4.002 4 0 1.86.998 3.41 2.998 3.858v4.282c-2 .446-2.998 1.997-2.998 3.858 0 2.21 1.792 4 4 4 2.362 0 4.325-2.072 3.94-4.6l5.056-2.91c.733.843 1.8 1.386 3.004 1.386 2.21 0 4-1.79 4-4s-1.79-4-4-4zM95.873 29.94c0 1.105-.895 2-2 2s-2-.895-2-2 .895-2 2-2 2 .895 2 2m-5 0c0 1.105-.895 2-2 2s-2-.895-2-2 .895-2 2-2 2 .895 2 2m-5 0c0 1.105-.895 2-2 2s-2-.895-2-2 .895-2 2-2 2 .895 2 2M96.443 38s-2.617-.743-4.424-.743c-1.475 0-1.81.26-3.062.26-4.08 0-7.376-3.01-7.882-6.666-.672-4.853 3.193-8.85 7.882-8.85 3.943 0 7.045 2.703 7.775 6.083.268 1.235.24 2.46-.078 3.643-.38 1.405-.363 2.985.05 4.568.21.81.598 1.706-.263 1.706m2.476-1.14l-.278-1.07c-.303-1.16-.368-2.385-.055-3.542.386-1.426.45-2.98.103-4.588-.92-4.255-4.826-7.66-9.73-7.66-5.958 0-10.693 5.127-9.863 11.125.642 4.64 4.776 8.393 9.863 8.393 1.47 0 1.765-.26 3.062-.26 1.564 0 3.776.66 3.776.66 1.888.474 3.604-1.208 3.122-3.06M1114 325c0 .552-.448 1-1 1s-1-.448-1-1v-14c0-.552.448-1 1-1s1 .448 1 1v14zm0-17h-2c-1.105 0-2 .895-2 2v16c0 1.105.895 2 2 2h2c1.105 0 2-.895 2-2v-16c0-1.105-.895-2-2-2zm-7 17c0 .552-.448 1-1 1s-1-.448-1-1v-10c0-.552.448-1 1-1s1 .448 1 1v10zm0-13h-2c-1.105 0-2 .895-2 2v12c0 1.105.895 2 2 2h2c1.105 0 2-.895 2-2v-12c0-1.105-.895-2-2-2zm14 13c0 .552-.448 1-1 1s-1-.448-1-1v-4c0-.552.448-1 1-1s1 .448 1 1v4zm0-7h-2c-1.105 0-2 .895-2 2v6c0 1.105.895 2 2 2h2c1.105 0 2-.895 2-2v-6c0-1.105-.895-2-2-2zM785 404h-3.712c-.133 0-.26.053-.354.146l-1.4 1.402c-.232.23-.62.18-.786-.1l-2.335-3.988c-.33-.565-1.107-.664-1.57-.2l-.5.497.01.014-2.084 2.084c-.095.093-.222.146-.355.146H769v-6c0-.552.448-1 1-1h14c.552 0 1 .448 1 1v6zm0 8c0 .552-.448 1-1 1h-14c-.552 0-1-.448-1-1v-6h3.745c.133 0 .26-.053.354-.146l1.84-1.84c.23-.233.618-.183.784.1 2.198 3.752 1.76 3 2.32 3.964.328.567 1.105.67 1.57.206l2.147-2.138c.094-.094.22-.146.353-.146H785v6zm0-17h-16c-1.105 0-2 .895-2 2v16c0 1.104.895 2 2 2h16c1.105 0 2-.896 2-2v-16c0-1.105-.895-2-2-2zM144 378h-3.712c-.133 0-.26.053-.354.146l-1.4 1.402c-.232.23-.62.18-.786-.1l-2.335-3.988c-.33-.565-1.107-.664-1.57-.2l-.5.497.01.014-2.084 2.084c-.095.093-.222.146-.355.146H128v-6c0-.552.448-1 1-1h14c.552 0 1 .448 1 1v6zm0 8c0 .552-.448 1-1 1h-14c-.552 0-1-.448-1-1v-6h3.745c.133 0 .26-.053.354-.146l1.84-1.84c.23-.233.618-.183.784.1 2.198 3.752 1.76 3 2.32 3.964.328.567 1.105.67 1.57.206l2.147-2.138c.094-.094.22-.146.353-.146H144v6zm0-17h-16c-1.105 0-2 .895-2 2v16c0 1.104.895 2 2 2h16c1.105 0 2-.896 2-2v-16c0-1.105-.895-2-2-2zM458.178 36.884c-4.29-3.75-10.942-1.628-12.42 3.934-.62 2.334-.02 3.417-.02 5.17 0 1.8-.738 4.408-.738 4.408 0 .32.283.63.632.54 1.247-.327 3.23-.972 5.603-.328 7.977 2.163 13.096-8.347 6.943-13.724M464.448 55c-.053 0-.106-.007-.16-.02-6.307-1.584-5.884.194-9.388-.743-1.06-.283-2.025-.793-2.858-1.455 6.364.78 11.67-4.765 10.73-11.294.96 1 1.666 2.238 1.964 3.625.85 3.936-1.306 3.27.248 9.252.09.35-.22.635-.537.635M808.725 234.148l-5.45-5.785c-.19-.2-.45-.363-.725-.363H791c-1.104 0-2 1-2 2.104v7c0 .552.448 1 1 1 .553 0 1-.448 1-1v-6c0-.552.448-1.104 1-1.104h9v4.104c0 1.105.896 1.896 2 1.896h4v1.104c0 .552.448 1 1 1 .553 0 1-.448 1-1v-2.267c0-.257-.098-.503-.275-.69zM803 247.052c0-.005.003-.01.003-.013 0-.006-.003-.01-.003-.014v.026zM801 240h-3c-1.104 0-2 1-2 2.104v1c0 1.105.896 1.896 2 1.896h1.5c.276 0 .5.223.5.5 0 .276-.224.5-.5.5H797c-.547 0-.99.492-.997 1.04.007.544.45.96.997.96h3.02c1.094 0 1.98-.782 1.98-1.875v-1.042c0-1.093-.886-2.083-1.98-2.083h-1.52c-.276 0-.5-.224-.5-.5 0-.277.224-.5.5-.5h2.5c.553 0 1-.396 1-.948v-.026c0-.553-.447-1.026-1-1.026zm5.25 6h-.5l-.75-6h-2l1 8h4l1-8h-2l-.75 6zM796 247.05c0-.005.003-.01.003-.013 0-.006-.003-.01-.003-.014v.026zm-1-6.026v.026c0 .552-.447.948-1 .948h-1c-1.214 0-2.176 1.082-1.972 2.335.16.984 1.083 1.665 2.08 1.665H794c.553 0 1 .473 1 1.026v.026c0 .552-.447.948-1 .948h-.828c-2.09 0-3.955-1.528-4.153-3.608-.228-2.385 1.64-4.392 3.98-4.392h1c.553 0 1 .473 1 1.026z" fill="#6E6EE2"/></g></svg>
