<?xml version="1.0" encoding="utf-8"?>
<!-- Generator: Adobe Illustrator 16.0.0, SVG Export Plug-In . SVG Version: 6.00 Build 0)  -->
<!DOCTYPE svg PUBLIC "-//W3C//DTD SVG 1.1//EN" "http://www.w3.org/Graphics/SVG/1.1/DTD/svg11.dtd">
<svg version="1.1" id="Layer_1" xmlns="http://www.w3.org/2000/svg" xmlns:xlink="http://www.w3.org/1999/xlink" x="0px" y="0px"
	 width="2500px" height="2500px" viewBox="0 0 2500 2500" enable-background="new 0 0 2500 2500" xml:space="preserve">
<g>
	<path fill="#FFFFFF" d="M1957.912,1307.525c-0.487-43.801-10.737-87.051-26.712-127.676
		c-12.325-31.449-26.638-62.074-40.612-92.813c-111.215-242.371-227.925-482.183-350.038-719.25
		c-17.175-33.125-33.987-66.45-52.125-99.062c-17.825-31.813-38.574-62.438-65.438-87.337
		c-42.862-40.863-100.375-65.225-159.399-68.9h-27.176c-60.762,3-120.074,28.5-163.675,71c-25.875,24.513-45.899,54.4-63.25,85.325
		c-17.899,32.075-34.475,64.875-51.325,97.475c-81.938,159.054-161.464,319.339-238.55,480.801
		c-45.949,96.625-91.513,193.412-135.337,290.987c-18.175,40.649-34.613,82.688-40.801,127.063
		c-11.462,74.925,4.976,153.563,45,217.899c34.5,55.888,86.288,100.925,146.65,126.938c47.188,20.366,98.476,29.444,149.787,26.512
		c68.538-3.637,134.625-28.262,192.613-64.199c64.688-39.7,120.012-92.5,171.524-147.775c47.9,51.625,99.163,100.888,158.338,139.5
		c57.149,37.6,122.313,64.825,190.85,71.3c74.438,7.774,151.563-10.675,214.038-52.112c55.258-36.614,98.049-89.194,122.675-150.737
		C1950.807,1392.75,1958.612,1350.281,1957.912,1307.525L1957.912,1307.525z M1249.362,1278.625
		c-18.688-22-35.149-45.8-51.688-69.425c-27.825-40.813-53.125-83.476-73.475-128.55c-16.675-37.4-30.063-76.663-35.288-117.438
		c-3.813-32.35-2.899-66.1,8.976-96.813c10.625-28.8,31.05-53.75,56.925-70.237c61.65-39.787,149.525-35.487,205.388,12.775
		c28.274,24.087,45.162,59.7,49.412,96.3c5.563,48.65-5.5,97.513-22.487,142.888
		C1355.05,1132.325,1304.275,1207.8,1249.362,1278.625L1249.362,1278.625z M1854.275,1381.813
		c-16.476,56.862-56.075,106.537-107.888,135.2c-45.925,25.688-100.737,34.487-152.513,25.837
		c-65.938-10.262-125.1-45.25-176.362-86.55c-37.675-30.274-71.601-64.875-104.101-100.537c51.313-64.9,99.65-132.8,136.575-207.025
		c32.226-65,56.713-135.425,59.038-208.513c1.313-46.375-7.413-93.6-29.075-134.887c-28.362-55.163-79.175-97.538-137.425-118.038
		c-54.413-19.438-114.9-21.175-170.413-5.35c-52.35,14.813-100.162,46.274-132.925,89.888
		c-28.838,38.024-45.275,84.774-49.088,132.188c-5.862,68.287,11.25,136.412,37.138,199.188
		c38.487,91.725,94.975,174.75,157.362,251.762c-28.131,32.49-58.658,62.825-91.325,90.75
		c-50.649,42.863-108.6,80.176-174.25,94.375c-53.075,11.913-110.337,5.987-159.012-18.637
		c-57.013-28.413-100.788-81.926-117.301-143.438c-12.625-45.188-9.824-93.976,5.188-138.237
		c12.488-36.625,29.426-71.525,45.275-106.763c110.024-239.76,225.425-477.015,346.112-711.588
		c18-34.912,35.726-69.987,54.775-104.325c15.55-27.662,33.638-54.825,59.199-74.25c27.641-21.533,61.832-32.93,96.863-32.288
		c36-0.425,71.787,12.837,99.324,35.975c27.2,22.587,45.575,53.487,62.075,84.288c37.301,70.063,73.125,140.938,108.963,211.737
		c102.28,202.434,200.558,406.865,294.774,613.175c14.238,32.05,29.476,63.851,39.063,97.675
		C1866.037,1295.138,1866.425,1340.188,1854.275,1381.813L1854.275,1381.813z M715.612,1825.475
		c30.8-6.975,64.45,13.338,72.45,43.913c9.938,31.287-9.813,67.662-41.263,76.712c-30.725,10.8-67.212-7.975-77.388-38.649
		c-9.649-25.851,0.676-57.05,23.601-72.338C699.849,1830.462,707.524,1827.188,715.612,1825.475z M923.638,2027.438
		c18.55-20.162,44.688-32.8,71.612-36.825c17.962-1.755,36.09-0.606,53.688,3.4c-0.225,28.388-0.05,56.737-0.1,85.138
		c-27.613-7.138-57.513-8.612-84.613,1.362c-14.72,5.36-27.987,14.078-38.75,25.463c-2.324,1.987-1.762,5.199-1.975,7.962
		c0.162,79.313-0.125,158.638,0.112,237.938c-0.274,3.05,0.463,6.487-0.888,9.351c-30.625,0.712-61.287,0.137-91.925,0.25
		c0.013-120.913-0.1-241.851,0.075-362.763c25.8,0.112,51.612-0.101,77.425,0.05c5.675-0.325,11.726,2.588,13.8,8.125
		C924.138,2013.513,923.487,2020.575,923.638,2027.438z M1583.987,2027.763c24.513-25.363,60.038-37.838,94.9-37.913
		c36.837-0.925,74.587,9.963,103.05,33.862c18.928,14.847,32.579,35.388,38.938,58.588c8.1,28.263,7.375,57.95,7.275,87.063
		c0.024,64.05,0,128.112,0.024,192.175c-30.887-0.05-61.762,0.2-92.649-0.138c0.024-64.013,0-128.024,0.024-192.063
		c0-23.787,1.125-49.449-11.524-70.638c-8.813-15.2-26.25-22.774-43.063-24.537c-32.025-5.125-65.476,7.612-87.551,30.963
		c-2.35,2.35-4.362,5.324-4.1,8.875c-0.3,9.899,1.2,19.837,0.35,29.75c-1.212,13.462,0.676,26.925,0.238,40.425
		c-0.396,25.452-0.43,50.909-0.101,76.362c-1.75,33.662,1.3,67.438-0.712,101.063c-30.763-0.1-61.5-0.024-92.263-0.037
		c-0.013-120.976-0.226-241.926,0.112-362.888c23.787,0.188,47.625,0,71.4,0.074c6.149-0.387,12.875,3.051,14.462,9.301
		C1584.25,2014.475,1583.813,2021.162,1583.987,2027.763L1583.987,2027.763z M681.737,2361.55
		c-0.013-120.963-0.188-241.912,0.063-362.862c30.65,0.075,61.288,0.05,91.925,0.024c0.238,120.95,0.063,241.9,0.088,362.825
		C743.125,2361.537,712.438,2361.513,681.737,2361.55z M624.65,1998.725c-24.288-0.05-48.575,0.075-72.888-0.138
		c-6.425-0.037-14.625,0.275-17.763,7.025c-2.813,6.938-1.737,14.638-1.987,21.938c-20.213-21.513-48.7-34.287-77.925-37.063
		c-45.125-4.05-91.888,8.463-128.125,35.862c-29.85,22.051-51.913,53.938-63.462,89.063c-5.563,16.463-8.35,33.738-10.125,51.001
		v24.837c2.587,51.987,25.712,103.412,66.05,136.925c30.425,25.775,69.525,40.175,109.138,42.688h20.65
		c31.399-2.112,62.399-15.1,83.824-38.5c0.2,7.338-0.837,15.112,1.913,22.138c2.862,5.688,9.612,7.25,15.475,7.024
		c25.063-0.063,50.163,0.025,75.25-0.112C624.675,2240.55,624.75,2119.638,624.65,1998.725L624.65,1998.725z M529.175,2248.513
		c-18.75,22.45-48.037,35.725-77.287,34.8c-31.351,0.237-63.888-11.775-84.2-36.362c-19.813-23.476-25.8-56.125-21.3-85.963
		c3.362-24.15,15.675-47.313,35.125-62.3c17.638-13.925,39.875-21.1,62.138-22.649c33.162-2.9,68.125,11.725,88.074,38.5
		c1.125,39.425,0.025,78.949,0.525,118.438C531.925,2238.175,533.362,2244.438,529.175,2248.513L529.175,2248.513z
		 M1443.875,2102.513c-14.275-34.912-39.6-65.263-71.7-85.063c-33.063-20.575-72.712-29.875-111.475-27.237
		c-30.612,2.013-60.525,15.075-81.775,37.399c-0.125-67.762,0-135.487-0.063-203.25c-30.899,0.013-61.825-0.137-92.725,0.088
		c0.162,178.975-0.263,358.038,0.225,537c25.588,0.063,51.2,0.125,76.8,0.063c6.363,0.5,13.226-3,14.976-9.438
		c1.263-6.55,0.8-13.313,0.837-19.95c21.476,23.888,53.025,36.851,84.75,38.763h18.926c51.362-2.575,101.725-26.65,133.962-67.013
		C1461.763,2248.513,1470.575,2168.038,1443.875,2102.513L1443.875,2102.513z M1335.813,2255.188
		c-20.7,19.213-49.35,28.425-77.325,28.15c-29.188,0.675-58.35-12.737-76.837-35.325c-2.288-2.351-3.038-5.525-2.851-8.65
		c0.025-41.525,0.063-83.037,0-124.537c17.75-23.15,46.163-37.575,75.226-39.063c29.462-0.862,60.375,7.787,82,28.563
		c20.6,19.112,30.649,47.775,30,75.537C1366.625,2207.588,1356.3,2236.063,1335.813,2255.188z M2206.287,2057.612
		c-39.3-50.05-106.487-75.3-169.125-65.938c-26.162,4.125-50.949,16.675-69.237,35.925c-0.2-67.725,0-135.45-0.1-203.2
		c-30.851-0.037-61.675-0.063-92.5,0.025c-0.025,178.987,0,358.025,0,537.037c24.313,0.188,48.688-0.037,73,0.188
		c6.388,0.101,14.375-0.412,17.65-6.937c2.837-7.05,1.774-14.913,1.975-22.325c21.313,23.35,52.175,36.25,83.4,38.525h20.824
		c50.8-2.763,100.463-26.476,132.638-66.226c26.275-31.7,40.45-72.3,42.8-113.188v-24.263
		C2244.7,2127.763,2231.375,2088.563,2206.287,2057.612L2206.287,2057.612z M2134.088,2244.763
		c-24.463,31.487-67.625,43.199-105.913,37.087c-23.313-4.649-45.925-17.237-59.712-36.888c-1.538-15.237-0.15-30.649-0.613-45.962
		c0.325-28.163-0.699-56.413,0.463-84.525c14.025-19.337,36.475-31.737,59.575-36.862c42.75-7.9,92.45,9.037,114.063,48.513
		C2161.625,2162.662,2159.663,2211.487,2134.088,2244.763L2134.088,2244.763z"/>
</g>
</svg>
