<?xml version="1.0" encoding="utf-8"?>
<!-- Generator: Adobe Illustrator 16.0.0, SVG Export Plug-In . SVG Version: 6.00 Build 0)  -->
<!DOCTYPE svg PUBLIC "-//W3C//DTD SVG 1.1//EN" "http://www.w3.org/Graphics/SVG/1.1/DTD/svg11.dtd">
<svg version="1.1" id="Ebene_1" xmlns="http://www.w3.org/2000/svg" xmlns:xlink="http://www.w3.org/1999/xlink" x="0px" y="0px"
	 width="595.275px" height="841.89px" viewBox="0 0 595.275 841.89" enable-background="new 0 0 595.275 841.89"
	 xml:space="preserve">
<path fill-rule="evenodd" clip-rule="evenodd" fill="#FFFFFF" d="M324.403,170.777c39.996-52.715,95.601-52.973,95.601-52.973
	s8.27,49.562-31.463,97.306c-42.426,50.98-90.649,42.638-90.649,42.638S288.837,217.654,324.403,170.777z"/>
<path fill-rule="evenodd" clip-rule="evenodd" fill="#FFFFFF" d="M302.979,292.467c20.577,0,58.764-28.284,108.471-28.284
	c85.563,0,119.222,60.883,119.222,60.883s-65.833,33.659-65.833,115.33c0,92.134,82.009,123.885,82.009,123.885
	s-57.328,161.358-134.761,161.358c-35.566,0-63.215-23.968-100.688-23.968c-38.187,0-76.084,24.862-100.765,24.862
	c-70.709,0-160.039-153.063-160.039-276.1c0-121.053,75.612-184.555,146.533-184.555
	C243.231,265.879,279.01,292.467,302.979,292.467z"/>
</svg>
