<?xml version="1.0" encoding="utf-8"?>
<!-- Generator: Adobe Illustrator 16.0.0, SVG Export Plug-In . SVG Version: 6.00 Build 0)  -->
<!DOCTYPE svg PUBLIC "-//W3C//DTD SVG 1.1//EN" "http://www.w3.org/Graphics/SVG/1.1/DTD/svg11.dtd">
<svg version="1.1" id="Layer_1" xmlns="http://www.w3.org/2000/svg" xmlns:xlink="http://www.w3.org/1999/xlink" x="0px" y="0px"
	 width="2500px" height="532px" viewBox="0 0 2500 532" enable-background="new 0 0 2500 532" xml:space="preserve">
<g transform="translate(-1)">
	<defs>
		<filter id="Adobe_OpacityMaskFilter" filterUnits="userSpaceOnUse" x="499.107" y="128.958" width="2002.393" height="403.042">
			<feColorMatrix  type="matrix" values="1 0 0 0 0  0 1 0 0 0  0 0 1 0 0  0 0 0 1 0"/>
		</filter>
	</defs>
	<mask maskUnits="userSpaceOnUse" x="499.107" y="128.958" width="2002.393" height="403.042" id="b">
		<g filter="url(#Adobe_OpacityMaskFilter)">
			<path id="a" fill="#FFFFFF" d="M-1.687,0.409h2500.035v531.402H-1.687"/>
		</g>
	</mask>
	<path mask="url(#b)" fill="#FFFFFF" d="M727.751,143.124c-1.304-4.124-5.131-6.926-9.456-6.925h-92.53
		c-4.325-0.001-8.152,2.802-9.456,6.925L499.564,513.377c-0.944,3.016-0.409,6.296,1.46,8.852c1.87,2.545,4.839,4.048,7.996,4.049
		h63.705c4.395,0,8.267-2.896,9.507-7.114l80.397-272.296c0,0,2.104-6.799,9.381-6.799c7.404,0,9.205,7.073,9.205,7.083
		l37.303,129.109h-50.105c-4.444-0.004-8.347,2.952-9.548,7.23l-14.38,51.122c-1.49,5.261,1.567,10.733,6.828,12.224
		c0.884,0.25,1.798,0.376,2.717,0.375h85.34l22.467,72.1c1.291,4.143,5.127,6.964,9.466,6.963h63.729
		c5.482-0.005,9.922-4.453,9.916-9.935c-0.001-1.006-0.154-2.006-0.456-2.965L727.751,143.124 M1005.305,469.218
		c-0.423-2.761-1.985-5.216-4.307-6.769c-2.321-1.554-5.191-2.054-7.901-1.375c-10.341,2.565-20.248,3.985-27.891,3.985
		c-14.499,0-20.959-6.287-20.959-20.38V302.824h56.883c5.477-0.002,9.917-4.439,9.923-9.916v-44.247c0-5.478-4.439-9.91-9.916-9.91
		h-56.89v-68.31c0.002-5.475-4.434-9.915-9.908-9.917c-0.461,0-0.921,0.032-1.377,0.096l-58.57,8.159
		c-4.902,0.682-8.552,4.873-8.553,9.822v60.147h-31.904c-5.475,0-9.913,4.436-9.916,9.91v44.247c0,5.477,4.439,9.916,9.916,9.916
		h31.904v151.021c0,51.865,27.261,78.154,81.027,78.154c15.299,0,41.282-3.526,58.274-9.432c4.506-1.562,7.258-6.113,6.548-10.829
		l-6.391-42.521 M1113.731,128.971h-58.57c-5.477,0-9.916,4.439-9.916,9.916c0,0.002,0,0.004,0,0.006v377.468
		c0,5.477,4.439,9.916,9.916,9.916h58.57c5.477,0,9.916-4.439,9.916-9.916V138.887
		C1123.647,133.403,1119.209,128.971,1113.731,128.971 M1303.634,420.856v34.488c-9.709,5.172-27.299,12.582-48.46,12.582
		c-18.258,0-23.823-5.565-23.823-23.83c0-17.729,3.444-23.244,24.97-23.244h47.313V420.856z M1264.338,233.019
		c-29.653,0-65.738,4.675-91.929,11.918c-4.875,1.34-7.956,6.138-7.146,11.128l6.856,42.519c0.426,2.65,1.91,5.014,4.111,6.548
		c2.197,1.543,4.93,2.122,7.57,1.6c24.355-4.735,49.502-7.348,70.797-7.348c42.277,0,49.036,8.925,49.036,37.57v24.979h-62.782
		c-60.006,0-85.611,24.749-85.611,82.749c0,55.492,28.07,87.317,77.014,87.317c28.31,0,56.663-7.857,80.493-22.225l2.502,9.192
		c1.177,4.315,5.097,7.31,9.57,7.31h47.301c5.477,0,9.916-4.439,9.916-9.916V338.106c0-76.608-31.901-105.087-117.701-105.087
		H1264.338z M1528.805,348.318c-36.343-9.368-36.343-9.746-36.343-29.685c0-13.392,1.328-19.823,31.271-19.823
		c20.509,0,50.776,3.589,70.212,6.913c2.676,0.456,5.414-0.198,7.586-1.825c2.174-1.615,3.594-4.049,3.929-6.737l5.521-44.637
		c0.624-5.036-2.651-9.73-7.593-10.883c-22.477-5.238-53.748-8.625-79.658-8.625c-90.075,0-108.531,33.998-108.531,85.032
		c0,56.118,10.426,74.978,79.46,91.794c45.443,10.938,45.443,19.066,45.443,32.543c0,17.697-1.511,23.82-31.265,23.82
		c-23.956,0-51.68-3.728-76.07-10.23c-5.292-1.41-10.725,1.736-12.135,7.027c-0.068,0.256-0.126,0.514-0.174,0.773l-7.743,42.354
		c-0.897,4.89,1.967,9.687,6.695,11.217c26.601,8.631,64.784,14.65,92.864,14.65c87.213,0,105.087-36.51,105.087-91.334
		c0-60.535-10.753-71.754-88.561-92.348 M1755.119,348.318c-36.343-9.368-36.343-9.746-36.343-29.685
		c0-13.392,1.328-19.823,31.271-19.823c20.512,0,50.776,3.589,70.214,6.913c2.676,0.456,5.415-0.198,7.587-1.825
		c2.175-1.615,3.593-4.049,3.926-6.736l5.521-44.638c0.627-5.034-2.646-9.729-7.587-10.882c-22.482-5.238-53.751-8.625-79.661-8.625
		c-90.071,0-108.528,33.998-108.528,85.032c0,56.118,10.42,74.978,79.46,91.794c45.443,10.938,45.443,19.066,45.443,32.543
		c0,17.697-1.511,23.82-31.271,23.82c-23.955,0-51.679-3.728-76.066-10.23c-2.674-0.712-5.523-0.273-7.86,1.209
		c-2.342,1.477-3.956,3.868-4.451,6.592l-7.744,42.354c-0.898,4.89,1.966,9.688,6.696,11.217c26.6,8.632,64.784,14.65,92.863,14.65
		c87.214,0,105.088-36.51,105.088-91.334c0-60.535-10.754-71.754-88.562-92.348 M1947.813,238.751h-58.57
		c-5.474,0-9.912,4.436-9.916,9.91v267.7c0,5.477,4.44,9.916,9.916,9.916l0,0h58.57c5.477,0,9.917-4.439,9.917-9.916l0,0V248.655
		c0-5.477-4.438-9.91-9.917-9.91 M2139.188,420.856v34.488c-9.712,5.172-27.299,12.582-48.463,12.582
		c-18.258,0-23.82-5.565-23.82-23.83c0-17.729,3.444-23.244,24.963-23.244h47.32V420.856z M2099.893,233.019
		c-29.653,0-65.738,4.675-91.929,11.918c-4.874,1.34-7.955,6.138-7.146,11.128l6.853,42.519c0.432,2.65,1.92,5.012,4.117,6.548
		c2.197,1.543,4.927,2.122,7.571,1.6c24.353-4.735,49.498-7.348,70.797-7.348c42.276,0,49.035,8.925,49.035,37.57v24.979h-62.785
		c-60,0-85.608,24.749-85.608,82.749c0,55.492,28.07,87.317,77.015,87.317c28.309,0,56.662-7.857,80.486-22.225l2.509,9.192
		c1.177,4.315,5.097,7.31,9.569,7.31h47.301c5.477,0,9.916-4.439,9.916-9.916l0,0V338.106
		C2217.594,261.499,2185.693,233.019,2099.893,233.019L2099.893,233.019z M2434.222,233.019c-31.048,0-73.328,10.703-109.051,27.469
		l-4.274-14.616c-1.239-4.224-5.114-7.125-9.517-7.124h-43.378c-5.475,0-9.913,4.436-9.916,9.91v267.7
		c0,5.476,4.439,9.915,9.916,9.915l0,0h58.57c5.477,0.001,9.916-4.439,9.916-9.915l0,0v-185.4
		c21.098-10.735,50.76-21.831,68.515-21.831c13.189,0,18.095,4.904,18.095,18.091v189.141c-0.004,5.476,4.433,9.918,9.909,9.922
		c0.002,0,0.004,0,0.007,0h58.57c5.477,0,9.916-4.439,9.916-9.916l0,0V319.776c0-57.57-22.634-86.757-67.271-86.757
		 M1944.665,128.958h-58.57c-5.477,0-9.916,4.439-9.916,9.916l0,0v51.783c0,5.477,4.439,9.916,9.916,9.916l0,0h58.57
		c5.477,0,9.916-4.439,9.916-9.916c0,0,0,0,0,0v-51.783C1954.581,133.397,1950.142,128.958,1944.665,128.958L1944.665,128.958"/>
	<defs>
		<filter id="Adobe_OpacityMaskFilter_1_" filterUnits="userSpaceOnUse" x="1.274" y="0.409" width="576.078" height="525.83">
			<feColorMatrix  type="matrix" values="1 0 0 0 0  0 1 0 0 0  0 0 1 0 0  0 0 0 1 0"/>
		</filter>
	</defs>
	<mask maskUnits="userSpaceOnUse" x="1.274" y="0.409" width="576.078" height="525.83" id="d">
		<g filter="url(#Adobe_OpacityMaskFilter_1_)">
			<path id="c" fill="#FFFFFF" d="M1.461,0.409h2500.035v531.402H1.461"/>
		</g>
	</mask>
	<path mask="url(#d)" fill="#FFFFFF" d="M479.632,130.646c-1.875-1.428-4.166-2.202-6.522-2.204c-1.291,0-2.591,0.239-3.828,0.711
		c-23.191,8.868-46.737,15.601-68.234,20.609c-4.382,1.023-7.924,4.281-9.394,8.185c-15.661,42.9-55.649,83.745-97.605,126.531
		c-1.684,1.6-4.042,3.708-7.882,3.708c-3.831,0-6.17-2.046-7.882-3.708c-41.949-42.787-81.94-83.483-97.602-126.39
		c-1.47-3.903-5.015-7.162-9.39-8.185c-21.507-5.011-45.116-11.953-68.279-20.817c-1.226-0.468-2.528-0.709-3.84-0.711
		c-2.337-0.006-4.611,0.762-6.466,2.185c-2.923,2.234-4.495,5.811-4.165,9.475c3.557,35.672,17.647,70.545,43.085,107.092
		c23.912,34.356,55.102,66.157,85.255,96.912c55.561,56.669,108.049,110.193,112.655,172.261c0.414,5.605,5.083,9.94,10.703,9.938
		h65.275c5.938-0.009,10.746-4.83,10.737-10.77c0-0.167-0.004-0.333-0.013-0.5c-2.055-41.496-17.672-83.052-47.741-127.028
		c-6.352-9.249-13.062-18.246-20.115-26.972c-2.864-3.579-1.662-8.021,0.535-10.262c2.163-2.22,4.344-4.433,6.532-6.674
		c30.157-30.756,61.341-62.556,85.259-96.916c25.435-36.547,39.528-71.216,43.082-106.882c0.355-3.582-1.274-7.388-4.165-9.595
		 M574.73,5.887c-2.574-3.438-6.613-5.466-10.907-5.478c-2.204,0-4.382,0.554-6.29,1.596
		c-80.011,43.797-172.758,66.966-268.226,66.988C193.844,68.965,101.093,45.802,21.088,2.002c-1.931-1.043-4.091-1.591-6.286-1.593
		c-4.281,0-8.355,2.046-10.908,5.465C0.107,10.911-0.009,19.36,6.435,24.39c40.073,29.874,84.245,53.2,131.293,69.147
		c48.768,16.545,99.758,24.947,151.561,24.969h0.038c51.806-0.022,102.799-8.424,151.563-24.969
		c47.053-15.954,91.221-39.273,131.345-69.185c6.399-4.999,6.276-13.448,2.496-18.469 M216.118,392.313
		c-1.542-1.614-3.809-3.264-7.618-3.264c-4.873,0-7.766,3.368-8.858,5.036c-27.456,41.779-41.638,81.217-43.599,120.843
		c-0.142,2.921,0.935,5.824,2.959,7.964c2.042,2.125,4.86,3.329,7.807,3.337h65.168c5.604,0,10.325-4.385,10.741-9.979
		c1.417-19.096,7.366-38.241,18.189-58.362c3.752-6.957,0.837-13.495-1.322-16.291c-10.741-13.967-23.893-28.866-43.463-49.287
		 M286.229,162.622c20.455,0,32.32-1.228,36.491-1.228c5.046,0,9.872,4.136,9.872,9.928c0,1.694-0.4,2.896-0.796,3.966
		c-2.713,7.253-15.079,33.35-38.096,55.737c-2.582,2.509-5.509,2.978-7.523,2.978h-0.032c-2.005,0-4.933-0.472-7.511-2.978
		c-23.024-22.388-35.392-48.484-38.1-55.737c-0.4-1.07-0.799-2.272-0.799-3.966c0-5.792,4.829-9.928,9.878-9.928
		c4.171,0,16.033,1.228,36.484,1.228H286.229"/>
</g>
</svg>
