<?xml version="1.0" encoding="utf-8"?>
<!-- Generator: Adobe Illustrator 16.0.0, SVG Export Plug-In . SVG Version: 6.00 Build 0)  -->
<!DOCTYPE svg PUBLIC "-//W3C//DTD SVG 1.1//EN" "http://www.w3.org/Graphics/SVG/1.1/DTD/svg11.dtd">
<svg version="1.1" id="Layer_1" xmlns="http://www.w3.org/2000/svg" xmlns:xlink="http://www.w3.org/1999/xlink" x="0px" y="0px"
	 width="2500px" height="1186px" viewBox="0 0 2500 1186" enable-background="new 0 0 2500 1186" xml:space="preserve">
<path fill="#FFFFFF" d="M340.526,470.942V135.829c0-12.417,1.239-19.865,22.35-19.865h284.221
	c49.654,0,76.959,42.207,96.824,121.637l16.134,63.311h48.401c8.679-179.963,16.119-258.162,16.119-258.162
	s-121.63,13.648-193.62,13.648H267.312L72.417,50.19v52.132l65.796,12.41c45.924,8.693,57.073,18.611,60.826,60.826
	c0,0,3.731,124.115,3.731,328.92c0,204.776-3.731,327.667-3.731,327.667c0,37.229-14.902,50.879-60.826,59.595l-65.796,12.417
	v52.104l194.896-6.194h325.189c73.229,0,243.268,6.194,243.268,6.194c3.709-44.692,28.551-247.006,32.274-269.319h-45.924
	l-48.408,110.467c-38.483,86.862-94.325,93.078-156.397,93.078H432.365c-62.064,0-91.854-24.827-91.854-78.191V529.299
	c0,0,135.286,0,182.441,3.73c34.76,2.493,55.849,12.418,67.034,60.819l14.902,64.542h53.342l-3.709-162.613l7.44-163.822h-53.356
	l-17.365,71.982c-11.186,47.163-18.619,55.871-67.035,60.818c-54.603,6.224-183.702,4.978-183.702,4.978v1.231h0.022
	L340.526,470.942L340.526,470.942z M1076.543,170.588c-17.38,76.952-34.76,136.525-95.578,176.247
	c-37.23,24.813-74.476,33.492-89.348,34.738v47.162h110.458v381.038c0,106.757,70.759,158.896,165.076,158.896
	c73.236,0,148.935-31.028,175.009-95.586l-26.074-33.513c-12.417,21.11-52.11,52.132-101.765,52.132
	c-54.603,0-84.393-37.245-84.393-131.555V423.795l183.71,13.664l9.917-84.422l-193.619,7.454V171.82L1076.543,170.588
	L1076.543,170.588z M1468.767,756.683l-47.162,1.239c2.478,27.297,3.731,62.064,3.731,94.332c0,33.514-1.239,64.542-3.731,79.43
	c0,0,94.332,34.723,189.903,34.723c129.085,0,232.11-62.058,232.11-183.694c0-208.492-312.779-177.456-312.779-317.734
	c0-58.326,52.125-80.676,109.22-80.676c44.686,0,81.915,16.134,89.362,39.736l31.036,93.087l45.932-2.478
	c3.73-49.655,6.201-106.75,13.656-152.666c-39.73-17.38-122.898-27.327-174.986-27.327c-121.667,0-219.701,53.378-219.701,172.538
	c0,207.269,305.317,165.068,305.317,317.756c0,54.588-33.528,93.071-109.22,93.071c-69.49,0-104.258-35.983-117.884-71.997
	L1468.767,756.683L1468.767,756.683z M2216.854,900.072c-71.856,200.721-159.818,252.721-239.101,252.721
	c-33.47,0-49.559-14.881-54.536-38.381l-18.582-96.662l-52.044,2.478c-9.91,56.999-19.82,120.207-33.432,172.229
	c30.977,23.508,82.983,35.925,123.886,35.925c85.506,0,215.578-11.171,334.495-293.63l199.481-470.776
	c16.119-38.417,22.291-42.134,69.372-60.73l26.021-9.888v-43.365l-117.707,6.194l-126.363-6.194v43.365l32.193,9.888
	c32.201,9.933,47.097,22.313,47.097,44.619c0,11.142-3.731,22.298-9.94,39.626c-18.581,47.111-133.804,327.092-164.744,386.576
	l30.934-11.172c-54.521-135.035-137.491-360.539-149.894-398.911c-2.478-7.44-3.717-13.635-3.717-19.858
	c0-19.813,13.627-35.925,43.365-42.111l40.888-8.649v-43.364l-169.751,6.193l-135.035-6.193v43.364l22.306,7.426
	c30.97,9.91,38.41,18.589,56.991,61.947c102.798,235.406,151.147,364.232,216.781,532.745L2216.854,900.072L2216.854,900.072z"/>
</svg>
