<?xml version="1.0" encoding="utf-8"?>
<!-- Generator: Adobe Illustrator 16.0.0, SVG Export Plug-In . SVG Version: 6.00 Build 0)  -->
<!DOCTYPE svg PUBLIC "-//W3C//DTD SVG 1.1//EN" "http://www.w3.org/Graphics/SVG/1.1/DTD/svg11.dtd">
<svg version="1.1" id="Layer_1" xmlns="http://www.w3.org/2000/svg" xmlns:xlink="http://www.w3.org/1999/xlink" x="0px" y="0px"
	 width="2500px" height="942px" viewBox="0 0 2500 942" enable-background="new 0 0 2500 942" xml:space="preserve">
<path fill="none" d="M4.539,936.927h2487.629V5.089H4.539"/>
<path fill="none" d="M4.539,5.089h2487.629v931.837H4.539"/>
<path fill="none" d="M4.539,5.089h2487.629v931.837H4.539"/>
<path fill="none" d="M0,0.006h2492.168v936.913H0"/>
<path display="none" fill="#26559A" d="M4.539,5.089h2495.469v936.913H4.539"/>
<path fill="none" d="M0,0.006h2492.168v936.913H0"/>
<path fill="#FFFFFF" d="M1318.137,469.778c-16.744,0-28.802,5.479-41.04,11.059v126.346c11.735,1.146,18.411,1.146,29.561,1.146
	c40.182,0,45.678-18.395,45.678-44.035v-60.358C1352.335,484.996,1346.047,469.778,1318.137,469.778 M1051.342,462.88
	c-27.877,0-34.215,15.283-34.215,34.206v10.621h68.43v-10.621C1085.549,478.155,1079.186,462.88,1051.342,462.88 M534.521,594.399
	c0,14.953,7.064,22.735,22.678,22.735c16.753,0,26.656-5.446,38.886-11.066V576.12h-36.624
	C542.131,576.128,534.521,579.33,534.521,594.399 M1577.669,469.778c-27.918,0-37.59,15.218-37.59,34.141v69.147
	c0,18.997,9.672,34.231,37.59,34.231c27.836,0,37.59-15.25,37.59-34.231v-69.147
	C1615.251,484.996,1605.505,469.778,1577.669,469.778 M397.695,671.898h-82.046V473.533h-41.031v-68.371h41.031v-41.04
	c0-55.771,23.156-88.937,88.912-88.937h54.78v68.372h-34.215c-25.616,0-27.315,9.557-27.315,27.382l-0.116,34.215h62.042
	l-7.262,68.372h-54.78V671.898z M678.189,672.41h-68.396l-2.938-17.281c-31.243,17.281-59.12,20.087-77.507,20.087
	c-50.176,0-76.864-33.464-76.864-79.744c0-54.59,31.146-74.091,86.883-74.091h56.728V509.58c0-27.885-3.202-36.055-46.115-36.055
	H479.8l6.866-68.372h76.698c94.178,0,114.825,29.733,114.825,104.979V672.41L678.189,672.41z M910.777,478.551
	c-42.558-7.295-54.788-8.896-75.254-8.896c-36.79,0-47.914,8.111-47.914,39.298v59.021c0,31.194,11.124,39.332,47.914,39.332
	c20.466,0,32.695-1.609,75.254-8.93v66.664c-37.293,8.367-61.572,10.555-82.088,10.555c-88.128,0-123.127-46.271-123.127-113.134
	v-47.897c0-66.895,34.999-113.265,123.127-113.265c20.516,0,44.812,2.22,82.088,10.579V478.551z M1167.604,562.462h-150.484v5.513
	c0,31.194,11.124,39.332,47.897,39.332c33.075,0,53.245-1.609,95.729-8.93v66.664c-40.965,8.367-62.306,10.555-102.528,10.555
	c-88.12,0-123.16-46.271-123.16-113.134v-54.763c0-58.478,26.012-106.399,116.294-106.399c90.299,0,116.261,47.353,116.261,106.399
	L1167.604,562.462L1167.604,562.462z M1434.39,563.717c0,64.617-18.485,111.747-130.497,111.747
	c-40.42,0-64.18-3.565-108.834-10.432V295.709l82.038-13.658v129.176c17.719-6.586,40.685-9.92,61.572-9.92
	c82.063,0,95.729,36.748,95.729,95.762v66.647H1434.39z M1697.396,565.128c0,55.737-23.05,109.808-119.455,109.808
	c-96.463,0-119.934-54.07-119.934-109.808v-53.814c0-55.754,23.47-109.832,119.934-109.832c96.405,0,119.455,54.078,119.455,109.832
	V565.128L1697.396,565.128z M1960.18,565.128c0,55.737-23.065,109.808-119.438,109.808c-96.464,0-119.95-54.07-119.95-109.808
	v-53.814c0-55.754,23.486-109.832,119.95-109.832c96.372,0,119.438,54.078,119.438,109.832V565.128L1960.18,565.128z
	 M2229.921,671.898h-88.953l-75.205-125.363v125.363h-82.047V295.709l82.047-13.658v242.177l75.205-119.066h88.953l-82.12,129.927
	L2229.921,671.898L2229.921,671.898z M1840.461,469.778c-27.868,0-37.54,15.218-37.54,34.141v69.147
	c0,18.997,9.672,34.231,37.54,34.231c27.836,0,37.682-15.25,37.682-34.231v-69.147
	C1878.143,484.996,1868.297,469.778,1840.461,469.778 M2276.762,625.123c13.814,0,24.823,11.248,24.823,25.294
	c0,14.269-11.009,25.401-24.938,25.401c-13.823,0-25.063-11.141-25.063-25.401c0-14.046,11.239-25.294,25.063-25.294H2276.762z
	 M2276.63,629.06c-11.116,0-20.227,9.557-20.227,21.374c0,12.024,9.11,21.481,20.358,21.481
	c11.232,0.115,20.228-9.457,20.228-21.374c0-11.908-8.995-21.481-20.228-21.481H2276.63L2276.63,629.06z M2271.91,665.164h-4.481
	v-28.239c2.352-0.339,4.597-0.66,7.964-0.66c4.291,0,7.089,0.883,8.78,2.129c1.684,1.246,2.566,3.152,2.566,5.851
	c0,3.706-2.451,5.959-5.479,6.866v0.223c2.468,0.454,4.159,2.674,4.704,6.833c0.677,4.399,1.354,6.091,1.807,6.998h-4.72
	c-0.677-0.891-1.37-3.499-1.906-7.188c-0.677-3.614-2.468-4.968-6.091-4.968h-3.136v12.155H2271.91z M2271.91,649.526h3.268
	c3.688,0,6.85-1.354,6.85-4.836c0-2.492-1.808-4.96-6.85-4.96c-1.469,0-2.501,0.124-3.268,0.223V649.526L2271.91,649.526z"/>
</svg>
