<?xml version="1.0" encoding="utf-8"?>
<!-- Generator: Adobe Illustrator 16.0.0, SVG Export Plug-In . SVG Version: 6.00 Build 0)  -->
<!DOCTYPE svg PUBLIC "-//W3C//DTD SVG 1.1//EN" "http://www.w3.org/Graphics/SVG/1.1/DTD/svg11.dtd">
<svg version="1.1" id="Layer_1" xmlns="http://www.w3.org/2000/svg" xmlns:xlink="http://www.w3.org/1999/xlink" x="0px" y="0px"
	 width="2500px" height="857px" viewBox="0 0 2500 857" enable-background="new 0 0 2500 857" xml:space="preserve">
<g transform="translate(4636.413 -2865.209)">
	<path fill="#FFFFFF" d="M-4249.31,3282.154h107.511v151.003c-33.545,10.777-75.903,16.689-119.932,16.689
		c-178.44,0-283.314-152.807-283.314-302.041c0-146.367,94.861-249.036,227.206-249.036c83.745,0,132.475,28.372,176.07,67.892
		v49.267l81.744-81.744c-51.704-34.98-126.57-68.225-233.581-68.225c-234.916,0-342.294,168.063-342.294,306.179
		c0,196.595,143.193,315.024,323.139,315.024c87.251,0,164.723-13.318,254.21-38.218v-156.011c0-7.977,3.504-13.451,8.745-18.258
		l28.238-28.237h-191.759l-35.981,35.715H-4249.31z"/>
	<path fill="#FFFFFF" d="M-3767.694,3076.944c-135.215,0-218.995,98.803-218.995,203.678c0,90.522,67.495,197.997,204.241,197.997
		c131.545,0,212.252-98.997,212.252-205.707c0-99.4-78.872-195.93-197.498-195.93V3076.944L-3767.694,3076.944z M-3790.129,3105.75
		c95.332,0,137.785,124.201,137.785,212.787c0,131.744-98.833,134.348-110.649,134.348c-45.227,0-76.837-27.334-100.498-63.186
		c-20.829-33.041-41.188-94.427-41.188-154.407c0-59.747,19.557-88.92,50.335-110.383c25.167-16.088,48.732-19.159,64.184-19.159
		H-3790.129z"/>
	<path fill="#FFFFFF" d="M-2883.801,3076.911c-118.096,0-181.982,74.767-181.982,158.247c0,63.552,45.528,135.249,139.454,135.249
		h23.763c0,0-6.472,15.721-6.507,30.908c0,22.399,8.045,34.98,25.131,54.34c-161.618,9.847-226.572,75.034-226.572,145.095
		c0,61.354,58.75,121.734,182.212,121.734c146.164,0,221.865-81.146,221.865-160.783c0-56.143-27.971-86.917-98.8-139.988
		c-20.828-16.188-24.867-26.499-24.867-38.615c0-17.357,10.382-28.843,14.187-33.179c6.709-7.076,18.324-15.153,22.664-19.025
		c23.798-20.16,57.41-49.997,57.41-109.547c0-40.855-16.993-76.003-55.708-108.914h47.264l35.514-35.514h-175.03L-2883.801,3076.911
		z M-2916.378,3103.48c21.429,0,39.316,7.577,58.209,23.298c20.957,18.892,54.443,69.661,54.443,132.478
		c0,67.792-52.67,86.351-81.176,86.351c-13.952,0-30.671-3.905-44.827-13.586c-31.442-20.39-62.654-74.667-62.654-139.254
		C-2992.383,3134.488-2957.67,3103.48-2916.378,3103.48z M-2869.615,3481.389c9.01,0,15.488,0.737,15.488,0.737
		s21.262,15.188,36.115,26.532c34.58,27.337,56.14,48.231,56.14,85.452c0,51.169-47.464,91.29-124.335,91.29
		c-84.376,0-148.867-39.286-148.867-103.437C-3035.074,3528.823-2990.881,3483.088-2869.615,3481.389z"/>
	<path fill="#FFFFFF" d="M-2683.2,3466.903h162.118l24.696-24.696l-46.496-5.809c-12.517-1.535-19.956-12.35-19.956-22.831v-489.692
		c0-9.646,4.473-14.586,7.74-17.727l29.243-29.24h-138.253l-35.981,35.982h53.739v507.25c0,7.21-2.27,12.116-7.143,17.156
		L-2683.2,3466.903L-2683.2,3466.903z"/>
	<path fill="#FFFFFF" d="M-2301.42,3076.944c-90.522,0-186.685,68.993-186.685,192.859c0,102.301,68.992,208.815,197.9,208.815
		c32.143,0,58.612-4.136,83.412-15.518c26.602-12.25,52.203-32.143,70.892-57.145c-35.277,17.791-64.05,29.474-102.271,29.474
		c-72.631,0-142.658-52.403-167.158-148.733l256.579-103.707c-14.82-52.838-56.609-106.046-152.636-106.046H-2301.42
		L-2301.42,3076.944z M-2318.18,3105.282c48.569,0,83.68,39.954,83.68,71.229c0,10.114-6.338,15.454-18.892,20.395l-157.712,63.786
		c0,0-4.27-19.859-4.27-41.321c0-90.021,65.088-114.087,97.193-114.087V3105.282z"/>
	<path fill="#FFFFFF" d="M-3308.877,3076.944c-135.215,0-218.995,98.803-218.995,203.678c0,90.522,67.495,197.997,204.242,197.997
		c131.544,0,212.252-98.997,212.252-205.707c0-99.4-78.873-195.93-197.499-195.93V3076.944L-3308.877,3076.944z M-3331.312,3105.75
		c95.332,0,137.785,124.201,137.785,212.787c0,131.744-98.833,134.348-110.648,134.348c-45.228,0-76.837-27.334-100.499-63.186
		c-20.828-33.041-41.188-94.427-41.188-154.407c0-59.747,19.556-88.92,50.334-110.383c25.168-16.088,48.733-19.159,64.184-19.159
		H-3331.312z"/>
</g>
</svg>
