<?xml version="1.0" encoding="utf-8"?>
<!-- Generator: Adobe Illustrator 18.1.1, SVG Export Plug-In . SVG Version: 6.00 Build 0)  -->
<svg version="1.1" id="Layer_1" xmlns="http://www.w3.org/2000/svg" xmlns:xlink="http://www.w3.org/1999/xlink" x="0px" y="0px"
	 viewBox="944 -32 2500 857" enable-background="new 944 -32 2500 857" xml:space="preserve">
<g transform="translate(4636.413 -2865.209)">
	<path fill="#FFFFFF" d="M-3305.3,3250.2h107.5v151c-33.5,10.8-75.9,16.7-119.9,16.7c-178.4,0-283.3-152.8-283.3-302
		c0-146.4,94.9-249,227.2-249c83.7,0,132.5,28.4,176.1,67.9v49.3l81.7-81.7c-51.7-35-126.6-68.2-233.6-68.2
		c-234.9,0-342.3,168.1-342.3,306.2c0,196.6,143.2,315,323.1,315c87.3,0,164.7-13.3,254.2-38.2v-156c0-8,3.5-13.5,8.7-18.3
		l28.2-28.2h-191.8L-3305.3,3250.2L-3305.3,3250.2z"/>
	<path fill="#FFFFFF" d="M-2823.7,3044.9c-135.2,0-219,98.8-219,203.7c0,90.5,67.5,198,204.2,198c131.5,0,212.3-99,212.3-205.7
		C-2626.2,3141.5-2705.1,3045-2823.7,3044.9L-2823.7,3044.9L-2823.7,3044.9z M-2846.1,3073.7c95.3,0,137.8,124.2,137.8,212.8
		c0,131.7-98.8,134.3-110.6,134.3c-45.2,0-76.8-27.3-100.5-63.2c-20.8-33-41.2-94.4-41.2-154.4c0-59.7,19.6-88.9,50.3-110.4
		C-2885.2,3076.8-2861.6,3073.7-2846.1,3073.7L-2846.1,3073.7z"/>
	<path fill="#FFFFFF" d="M-1939.8,3044.9c-118.1,0-182,74.8-182,158.2c0,63.6,45.5,135.2,139.5,135.2h23.8c0,0-6.5,15.7-6.5,30.9
		c0,22.4,8,35,25.1,54.3c-161.6,9.8-226.6,75-226.6,145.1c0,61.4,58.7,121.7,182.2,121.7c146.2,0,221.9-81.1,221.9-160.8
		c0-56.1-28-86.9-98.8-140c-20.8-16.2-24.9-26.5-24.9-38.6c0-17.4,10.4-28.8,14.2-33.2c6.7-7.1,18.3-15.2,22.7-19
		c23.8-20.2,57.4-50,57.4-109.5c0-40.9-17-76-55.7-108.9h47.3l35.5-35.5L-1939.8,3044.9L-1939.8,3044.9z M-1972.4,3071.5
		c21.4,0,39.3,7.6,58.2,23.3c21,18.9,54.4,69.7,54.4,132.5c0,67.8-52.7,86.4-81.2,86.4c-14,0-30.7-3.9-44.8-13.6
		c-31.4-20.4-62.7-74.7-62.7-139.3C-2048.4,3102.5-2013.7,3071.5-1972.4,3071.5z M-1925.6,3449.4c9,0,15.5,0.7,15.5,0.7
		s21.3,15.2,36.1,26.5c34.6,27.3,56.1,48.2,56.1,85.5c0,51.2-47.5,91.3-124.3,91.3c-84.4,0-148.9-39.3-148.9-103.4
		C-2091.1,3496.8-2046.9,3451.1-1925.6,3449.4z"/>
	<path fill="#FFFFFF" d="M-1739.2,3434.9h162.1l24.7-24.7l-46.5-5.8c-12.5-1.5-20-12.3-20-22.8v-489.7c0-9.6,4.5-14.6,7.7-17.7
		l29.2-29.2h-138.3l-36,36h53.7v507.2c0,7.2-2.3,12.1-7.1,17.2L-1739.2,3434.9L-1739.2,3434.9z"/>
	<path fill="#FFFFFF" d="M-1357.4,3044.9c-90.5,0-186.7,69-186.7,192.9c0,102.3,69,208.8,197.9,208.8c32.1,0,58.6-4.1,83.4-15.5
		c26.6-12.2,52.2-32.1,70.9-57.1c-35.3,17.8-64,29.5-102.3,29.5c-72.6,0-142.7-52.4-167.2-148.7l256.6-103.7
		C-1219.6,3098.2-1261.4,3044.9-1357.4,3044.9L-1357.4,3044.9L-1357.4,3044.9z M-1374.2,3073.3c48.6,0,83.7,40,83.7,71.2
		c0,10.1-6.3,15.5-18.9,20.4l-157.7,63.8c0,0-4.3-19.9-4.3-41.3C-1471.4,3097.3-1406.3,3073.3-1374.2,3073.3L-1374.2,3073.3z"/>
	<path fill="#FFFFFF" d="M-2364.9,3044.9c-135.2,0-219,98.8-219,203.7c0,90.5,67.5,198,204.2,198c131.5,0,212.3-99,212.3-205.7
		C-2167.4,3141.5-2246.3,3045-2364.9,3044.9L-2364.9,3044.9L-2364.9,3044.9z M-2387.3,3073.7c95.3,0,137.8,124.2,137.8,212.8
		c0,131.7-98.8,134.3-110.6,134.3c-45.2,0-76.8-27.3-100.5-63.2c-20.8-33-41.2-94.4-41.2-154.4c0-59.7,19.6-88.9,50.3-110.4
		C-2426.4,3076.8-2402.8,3073.7-2387.3,3073.7L-2387.3,3073.7z"/>
</g>
</svg>
