<?xml version="1.0" encoding="utf-8"?>
<!-- Generator: Adobe Illustrator 18.1.1, SVG Export Plug-In . SVG Version: 6.00 Build 0)  -->
<svg version="1.1" id="Layer_1" xmlns="http://www.w3.org/2000/svg" xmlns:xlink="http://www.w3.org/1999/xlink" x="0px" y="0px"
	 viewBox="-1823.1 104.2 3446.1 692.4" enable-background="new -1823.1 104.2 3446.1 692.4" xml:space="preserve">
<g>
	<path fill="#FFFFFF" d="M-734.4,363.7c7.9-8.3,14.3-15.9,21.6-22.7c31.1-29.4,68.1-46.3,110.8-49.5c56.8-4.4,107.9,10.5,151.2,48.4
		c29.4,25.7,48.5,58.4,61.4,95c10.1,28.6,15,58.2,16.4,88.5c2.3,49.6-3,98.1-22.4,144.3c-19.3,45.9-49.3,82.3-94.1,105.5
		c-34.8,18-71.9,24.6-110.8,21.7c-53.5-4-96.1-28.8-130.5-69c-0.7-0.9-1.5-1.7-3.1-3.5c0,20.9,0,40.7,0,60.8c-42.3,0-83.8,0-125.9,0
		c0-220.8,0-441.8,0-663.1c41.6,0,83.1,0,125.3,0C-734.4,200.6-734.4,281.5-734.4,363.7z M-502,543.8c-1.3-12.4-2-24.9-4.2-37.1
		c-5.6-31.3-19.4-58.4-44.3-78.8c-28.4-23.3-61.7-29.1-96.9-22.7c-33.3,6.1-61.5,21.9-83,48.7c-2.6,3.3-3.8,6.6-3.8,10.9
		c0.1,51.1,0.3,102.3-0.1,153.4c-0.1,8.3,2.2,14.7,7.9,20.4c29,29.1,63.7,44.7,105.1,44.1c41.8-0.6,74.3-18.5,96.6-53.9
		C-508.3,602.9-502.9,574.1-502,543.8z"/>
	<path fill="#FFFFFF" d="M1291.6,583c-119.2,0-238,0-357.8,0c1.3,6.1,1.9,11.6,3.6,16.9c16.1,52.1,50.3,84.4,104.7,92.5
		c55.4,8.2,105.9-5.8,151.2-38.7c2.5-1.9,4.9-4,7.9-6.5c18.5,27.1,37,54.1,56.1,82.1c-9.2,6.8-17.9,14-27.2,20.2
		c-30.4,20.2-64.3,31.7-99.8,38.9c-32.3,6.5-65,8.9-97.9,5.9c-71.1-6.5-132.3-33.4-177.9-90.1c-27.8-34.5-43.8-74.3-49.8-118.2
		c-6.5-47.5-3.5-94.2,14.4-139c34.3-85.7,97.6-136.8,188.1-152.9c51.9-9.2,103-3.5,150.9,20.1c57.7,28.4,95.3,74.5,116.6,134.5
		c11.4,32.1,16.5,65.4,17,99.4C1291.7,559.6,1291.6,571.1,1291.6,583z M1169.3,497.3c-2.6-26.2-10.7-49.3-27.9-68.8
		c-35.3-40-94.8-45.8-137.2-29.5c-38.3,14.7-59.6,44.8-69.6,83.7c-1.2,4.7-1.8,9.6-2.8,14.6C1011.3,497.3,1089.9,497.3,1169.3,497.3
		z"/>
	<path fill="#FFFFFF" d="M7.6,302.9c42.2,0,83.8,0,125.8,0c0,159.9,0,319.8,0,480.1c-41.6,0-83.3,0-125.7,0c0-19.6,0-39.1,0-59.4
		c-8.1,7.3-15.2,14.3-22.9,20.5c-32.1,25.6-67.5,43.8-108.8,48.9c-32,3.9-63.8,3.8-95.3-4.1c-48.8-12.3-78.5-44-91.6-92
		c-4.3-15.6-6.2-31.7-6.2-47.9c0-113.2,0-226.3,0-339.5c0-2.1,0-4.2,0-6.6c42.1,0,83.7,0,126,0c0,2.1,0,4.2,0,6.3
		c0,93.3-0.1,186.6,0.1,280c0,12.1,1,24.3,3.1,36.2c5.4,30.3,25,47.4,54,53.9c46.4,10.5,87.4-0.8,122.8-32.4c2.7-2.4,5.4-5,8.1-7.4
		c7.4-6.5,10.8-13.9,10.8-24.6C7.4,513.3,7.6,411.6,7.6,310C7.6,307.7,7.6,305.4,7.6,302.9z"/>
	<path fill="#FFFFFF" d="M493.9,412.7c0-37.1,0-73.2,0-109.9c26.3,0,52.6,0,79.6,0c0-2.8,0-5.1,0-7.4c-0.1-21.6-0.2-43.2,4.2-64.7
		c13.2-64.3,62.3-110.6,127.5-119.3c39.2-5.2,77.4-1.4,114.3,13.2c16,6.3,29.7,16.2,41.5,29.4c-15.8,24.7-31.6,49.4-47.7,74.4
		c-9.4-8.9-20.2-15.1-32.6-17.6c-19.3-4-38.1-3.6-55.1,8.1c-12.5,8.6-20.4,20.6-22.4,35.2c-2.2,15.7-2.4,31.7-3.5,48.2
		c33.7,0,65.9,0,98.5,0c0,36.8,0,73,0,110.1c-32.4,0-64.7,0-97.4,0c0,123.9,0,247,0,370.4c-42.4,0-84.5,0-127.1,0c0-2.5,0-4.8,0-7.1
		c0-118.6,0-237.3,0-355.9c0-7.3,0-7.3-7.3-7.3c-22,0-44,0-66,0C498.3,412.7,496.4,412.7,493.9,412.7z"/>
	<path fill="#FFFFFF" d="M374.9,783c-42.6,0-84.5,0-127.1,0c0-123.3,0-246.4,0-370.3c-26.9,0-53.1,0-79.6,0c0-36.9,0-73.2,0-110.1
		c26.3,0,52.7,0,79.6,0c0-11.6-0.2-22.6,0-33.5c0.7-32.7,7.5-63.8,25.6-91.6c24.4-37.2,59.3-58.8,102.9-65.6
		c40.1-6.2,79.4-2.3,117.3,12.7c15,5.9,28.1,15.1,39.2,26.9c1,1,1.5,3.8,0.8,4.8c-14.9,23.7-30,47.2-45.1,70.7
		c-0.3,0.4-0.7,0.7-1.2,1.1c-16.9-15.9-37.3-21.3-59.9-19c-26.9,2.7-45.7,19.5-50.2,46.4c-2.6,15.1-2.3,30.7-3.3,46.7
		c33.5,0,65.8,0,98.4,0c0,36.9,0,73.2,0,110.3c-32.2,0-64.5,0-97.3,0C374.9,536.4,374.9,659.6,374.9,783z"/>
	<path fill="#FFFFFF" d="M-1484.2,104.2c7.8,2.2,16,3.3,23.2,6.6c86.4,40.1,172.7,80.5,259,120.9c14.3,6.7,28.7,13.3,43,20
		c2.3,1.1,4.6,2.1,6.7,3.4c8.2,4.9,8.3,12.4-0.2,16.9c-7.6,4.1-15.6,7.6-23.4,11.3c-95.2,44.5-190.4,89-285.7,133.4
		c-15.2,7.1-30.8,7.1-46,0c-101.3-47.2-202.5-94.5-303.8-141.8c-2.3-1.1-4.6-2.1-6.6-3.5c-6.7-4.5-6.8-10.7-0.3-15.3
		c1.9-1.3,4-2.4,6.1-3.4c91-42.5,182-85,273-127.5c10.1-4.7,20.2-9.4,30.3-14.2c7.7-3.6,15.6-5.7,24.1-5.3
		C-1484.5,105.2-1484.3,104.7-1484.2,104.2z"/>
	<path fill="#FFFFFF" d="M1343.9,782.9c0-160.2,0-319.9,0-480c41.8,0,83.4,0,125.6,0c0,21.2,0,42.4,0,64.8
		c42-45.3,90.3-75.6,153.5-77.4c0,41.3,0,82.1,0,123.2c-4-0.5-7.8-0.9-11.5-1.3c-44.4-4.9-84.6,6-120.5,32.2
		c-6.5,4.7-11.8,11.1-17.6,16.8c-2.9,2.8-3.7,6.3-3.7,10.4c0.1,101.5,0.1,203,0.1,304.5c0,2.2,0,4.3,0,6.9
		C1427.7,782.9,1386,782.9,1343.9,782.9z"/>
	<path fill="#FFFFFF" d="M-1734.4,596c8.2,2.4,16.5,3.9,23.9,7.3c67.7,31.3,135.2,63,202.9,94.5c15.4,7.1,31,7.1,46.4,0
		c68.5-31.9,136.9-64.1,205.5-95.9c14.1-6.5,29-6.4,43.2-0.2c18.9,8.3,37.5,17.3,56.2,26.1c4.6,2.2,10,4.2,10,10.5
		c0,6.5-5.6,8.6-10.4,10.8c-69.2,32.4-138.5,64.7-207.7,97.1c-32.1,15-64.2,30.1-96.4,45c-15.5,7.2-31.3,7.4-46.9,0.1
		c-68.2-31.8-136.4-63.7-204.6-95.5c-32.6-15.2-65.2-30.4-97.8-45.7c-3.4-1.6-6.9-3.4-9.8-5.8c-4.2-3.5-4.2-8-0.2-11.7
		c2.4-2.2,5.4-3.9,8.4-5.3c17.8-8.4,35.4-17,53.5-24.8C-1750.9,599.3-1742.7,598.2-1734.4,596z"/>
	<path fill="#FFFFFF" d="M-1484.7,608.7c-8.6,0.5-16.7-1.6-24.5-5.3c-69.5-32.6-139.1-65-208.6-97.5c-31.5-14.7-63.1-29.4-94.6-44.2
		c-4.8-2.2-10.4-4.3-10.3-10.8c0.1-6.2,5.5-8.3,10.1-10.5c18.4-8.6,36.7-17.4,55.3-25.7c14.7-6.6,29.9-6.7,44.5,0.1
		c68.7,31.9,137.3,64.1,206,96c14.7,6.8,29.9,6.8,44.5,0c68.6-31.8,137-64,205.6-95.8c14.8-6.9,30.1-6.9,45-0.3
		c19,8.5,37.8,17.5,56.6,26.3c1.4,0.6,2.7,1.4,3.9,2.2c6.7,4.7,6.8,10.8,0.1,15.3c-3.3,2.2-7,3.8-10.6,5.5
		c-87.5,40.9-175,81.8-262.5,122.6c-12.1,5.6-24.2,11.2-36.2,17C-1468.1,607.3-1476.1,609.1-1484.7,608.7z"/>
</g>
</svg>
