<?xml version="1.0" encoding="utf-8"?>
<!-- Generator: Adobe Illustrator 16.0.0, SVG Export Plug-In . SVG Version: 6.00 Build 0)  -->
<!DOCTYPE svg PUBLIC "-//W3C//DTD SVG 1.1//EN" "http://www.w3.org/Graphics/SVG/1.1/DTD/svg11.dtd">
<svg version="1.1" id="Layer_1" xmlns="http://www.w3.org/2000/svg" xmlns:xlink="http://www.w3.org/1999/xlink" x="0px" y="0px"
	 width="2500px" height="728px" viewBox="0 0 2500 728" enable-background="new 0 0 2500 728" xml:space="preserve">
<path fill="#FFFFFF" d="M0.293,135.382h87.168v193.662h183.843V135.382h87.28v475.381h-87.28V413.033H87.461v197.729H0.293V135.382z
	 M634.731,455.924c0,39.795-32.422,72.178-72.207,72.178c-39.8,0-72.202-32.383-72.202-72.178V251.256h-82.666v204.668
	c0,85.386,69.478,154.839,154.868,154.839c85.371,0,154.844-69.453,154.844-154.839V251.256h-82.637V455.924 M948.14,253.653
	c-41.006,0-69.629,11.899-97.271,39.033V135.382h-82.935V426.91c0,109.121,78.896,183.853,167.534,183.853
	c98.54,0,184.878-76.064,184.878-178.55C1120.347,331.026,1040.732,253.653,948.14,253.653L948.14,253.653z M950.2,534.039
	c-56.196,0-99.17-46.934-99.17-101.826c0-54.902,42.974-101.851,99.17-101.851c47.617,0,90.615,46.948,90.615,101.851
	C1040.815,487.105,997.817,534.039,950.2,534.039z M1259.639,274.547c0-41.689,27.778-54.907,58.188-54.907
	c24.482,0,56.88,18.516,78.022,41.006l54.214-63.481c-27.095-36.367-81.973-61.504-126.943-61.504
	c-89.946,0-154.756,52.246-154.756,138.887c0,160.693,197.739,109.756,197.739,199.717c0,27.744-27.104,52.236-58.169,52.236
	c-48.955,0-64.834-23.809-87.31-48.945l-60.19,62.153c38.379,46.958,85.977,70.776,142.856,70.776
	c85.303,0,154.082-52.905,154.082-135.581C1457.373,296.358,1259.639,351.915,1259.639,274.547 M1675.703,248.995
	c-88.628,0-167.534,74.688-167.534,183.833v292.28h82.93V567.057c27.646,27.114,56.255,39.033,97.275,39.033
	c92.588,0,172.212-77.363,172.212-178.55C1860.586,325.04,1774.224,248.995,1675.703,248.995L1675.703,248.995z M1690.439,529.391
	c-56.191,0-99.17-46.997-99.17-101.851c0-54.902,42.979-101.851,99.17-101.851c47.607,0,90.61,46.948,90.61,101.851
	C1781.05,482.394,1738.047,529.391,1690.439,529.391z M2471.04,534.039c-48.916,0-62.803-21.152-62.803-53.569V336.974h76.035
	v-72.734h-76.035v-95.898l-83.96,37.686v292.3c0,74.736,51.563,112.437,122.29,112.437c10.581,0,25.146-0.684,33.091-2.642
	l20.503-75.381C2490.903,533.38,2480.327,534.039,2471.04,534.039"/>
<path fill="#FFFFFF" d="M2252.334,341.202c-15.898-27.354-38.262-49.282-66.221-65.791c-20.894-12.163-42.559-19.883-66.973-23.198
	v-86.914c24.414-10.366,39.565-33.311,39.565-60.078c0-36.484-29.258-66.05-65.713-66.05c-36.484,0-66.255,29.565-66.255,66.05
	c0,26.768,14.277,49.712,38.691,60.078v86.953c-19.531,2.822-39.785,8.911-58.281,18.267
	c-37.778-28.691-161.655-122.817-234.121-177.793c1.719-6.196,3.042-12.583,3.042-19.321c0-40.41-32.725-73.164-73.149-73.164
	s-73.135,32.754-73.135,73.164c0,40.405,32.744,73.169,73.169,73.169c13.789,0,26.543-4.033,37.549-10.664l15.293,11.602
	l210.137,151.406c-11.108,10.2-21.455,21.802-29.731,34.819c-16.772,26.538-27.021,55.737-27.021,87.588v6.646
	c0,22.358,4.248,43.467,11.484,63.296c6.372,17.314,15.688,33.057,27.227,47.29l-69.741,69.912
	c-20.643-7.684-43.871-2.589-59.404,13.027c-10.637,10.584-16.594,24.985-16.543,39.99c0.005,15.103,5.889,29.297,16.572,39.976
	c10.577,10.645,24.975,16.612,39.98,16.572c15.01,0.038,29.411-5.929,39.995-16.572c10.63-10.584,16.589-24.976,16.553-39.976
	c0-5.845-0.903-11.548-2.603-16.968l72.085-72.095c9.883,6.826,20.557,12.573,32.031,17.529
	c22.632,9.785,47.612,15.747,74.951,15.747h5.01c30.225,0,58.735-7.1,85.537-21.621c28.242-15.347,50.347-36.333,67.046-63.125
	c16.787-26.865,26.03-56.548,26.03-89.204v-1.631C2275.391,397.994,2267.954,368.355,2252.334,341.202L2252.334,341.202z
	 M2164.258,492.438c-19.565,21.743-42.056,35.137-67.48,35.137h-4.189c-14.521,0-28.726-4.014-42.632-11.313
	c-15.674-8.037-27.588-19.502-37.339-34.019c-10.078-14.248-15.547-29.805-15.547-46.299v-5.01c0-16.216,3.11-31.592,10.952-46.113
	c8.384-15.874,19.707-28.218,34.766-38.032c14.785-9.746,30.576-14.526,48.164-14.526h1.636c15.947,0,31.045,3.145,45.293,10.435
	c14.517,7.773,26.377,18.394,35.571,32.363c8.931,13.975,14.243,29.048,15.952,45.469c0.269,3.413,0.405,6.909,0.405,10.249
	C2189.81,453.063,2181.294,473.702,2164.258,492.438L2164.258,492.438z"/>
</svg>
