<?xml version="1.0" encoding="UTF-8" standalone="no"?>
<svg width="124px" height="109px" viewBox="0 0 124 109" version="1.1" xmlns="http://www.w3.org/2000/svg" xmlns:xlink="http://www.w3.org/1999/xlink" xmlns:sketch="http://www.bohemiancoding.com/sketch/ns">
    <!-- Generator: Sketch 3.3.3 (12072) - http://www.bohemiancoding.com/sketch -->
    <title>large</title>
    <desc>Created with Sketch.</desc>
    <defs></defs>
    <g id="Page-1" stroke="none" stroke-width="1" fill="none" fill-rule="evenodd" sketch:type="MSPage">
        <g id="large" sketch:type="MSLayerGroup">
            <path d="M48.787,71.808 C46.333,75.065 41.703,75.716 38.445,73.261 C35.188,70.807 34.538,66.177 36.992,62.919 C39.446,59.662 44.077,59.012 47.334,61.466 C50.591,63.92 51.242,68.551 48.787,71.808" id="Fill-1" fill="#39CCB6" sketch:type="MSShapeGroup"></path>
            <path d="M64.722,75.172 C60.41,76.409 55.911,73.915 54.675,69.603 C53.438,65.29 55.932,60.792 60.244,59.555 C64.557,58.318 69.055,60.812 70.292,65.125 C71.528,69.437 69.035,73.935 64.722,75.172" id="Fill-2" fill="#35BFAB" sketch:type="MSShapeGroup"></path>
            <path d="M87.385,71.808 C84.931,75.065 80.3,75.716 77.043,73.261 C73.786,70.807 73.135,66.177 75.59,62.919 C78.044,59.662 82.675,59.012 85.932,61.466 C89.189,63.92 89.84,68.551 87.385,71.808" id="Fill-3" fill="#3CD6BF" sketch:type="MSShapeGroup"></path>
            <path d="M38.733,88.189 C36.279,91.446 31.649,92.097 28.391,89.642 C25.134,87.188 24.484,82.558 26.938,79.3 C29.392,76.043 34.023,75.393 37.28,77.847 C40.537,80.302 41.188,84.932 38.733,88.189" id="Fill-4" fill="#3CD6BF" sketch:type="MSShapeGroup"></path>
            <path d="M54.833,91.553 C50.52,92.79 46.022,90.296 44.785,85.984 C43.549,81.671 46.042,77.173 50.355,75.936 C54.667,74.7 59.166,77.193 60.402,81.506 C61.639,85.818 59.146,90.317 54.833,91.553" id="Fill-5" fill="#39CCB6" sketch:type="MSShapeGroup"></path>
            <path d="M73.742,91.553 C69.429,92.79 64.931,90.296 63.694,85.984 C62.458,81.671 64.951,77.173 69.264,75.936 C73.576,74.7 78.075,77.193 79.311,81.506 C80.548,85.818 78.054,90.317 73.742,91.553" id="Fill-6" fill="#39CCB6" sketch:type="MSShapeGroup"></path>
            <path d="M96.405,88.189 C93.95,91.446 89.32,92.097 86.063,89.642 C82.806,87.188 82.155,82.558 84.609,79.3 C87.064,76.043 91.694,75.393 94.951,77.847 C98.208,80.302 98.859,84.932 96.405,88.189" id="Fill-7" fill="#3CD6BF" sketch:type="MSShapeGroup"></path>
            <path d="M106.412,68.347 C106.412,71.511 103.847,74.077 100.682,74.077 C97.518,74.077 94.952,71.511 94.952,68.347 C94.952,65.182 97.518,62.617 100.682,62.617 C103.847,62.617 106.412,65.182 106.412,68.347" id="Fill-8" fill="#60D6C4" sketch:type="MSShapeGroup"></path>
            <path d="M97.202,51.796 C97.202,54.96 94.637,57.526 91.472,57.526 C88.307,57.526 85.742,54.96 85.742,51.796 C85.742,48.631 88.307,46.065 91.472,46.065 C94.637,46.065 97.202,48.631 97.202,51.796" id="Fill-9" fill="#60D6C4" sketch:type="MSShapeGroup"></path>
            <path d="M114.737,86.087 C114.737,89.252 112.172,91.818 109.007,91.818 C105.842,91.818 103.277,89.252 103.277,86.087 C103.277,82.923 105.842,80.357 109.007,80.357 C112.172,80.357 114.737,82.923 114.737,86.087" id="Fill-10" fill="#60D6C4" sketch:type="MSShapeGroup"></path>
            <path d="M123.947,101.027 C123.947,104.192 121.382,106.757 118.217,106.757 C115.052,106.757 112.487,104.192 112.487,101.027 C112.487,97.862 115.052,95.297 118.217,95.297 C121.382,95.297 123.947,97.862 123.947,101.027" id="Fill-11" fill="#60D6C4" sketch:type="MSShapeGroup"></path>
            <path d="M87.992,35.471 C87.992,38.636 85.427,41.201 82.262,41.201 C79.097,41.201 76.532,38.636 76.532,35.471 C76.532,32.306 79.097,29.741 82.262,29.741 C85.427,29.741 87.992,32.306 87.992,35.471" id="Fill-12" fill="#60D6C4" sketch:type="MSShapeGroup"></path>
            <path d="M19.496,68.347 C19.496,71.511 22.062,74.077 25.226,74.077 C28.391,74.077 30.957,71.511 30.957,68.347 C30.957,65.182 28.391,62.617 25.226,62.617 C22.062,62.617 19.496,65.182 19.496,68.347" id="Fill-13" fill="#60D6C4" sketch:type="MSShapeGroup"></path>
            <path d="M29.15,51.796 C29.15,54.96 31.716,57.526 34.88,57.526 C38.045,57.526 40.61,54.96 40.61,51.796 C40.61,48.631 38.045,46.065 34.88,46.065 C31.716,46.065 29.15,48.631 29.15,51.796" id="Fill-14" fill="#60D6C4" sketch:type="MSShapeGroup"></path>
            <path d="M9.842,86.087 C9.842,89.252 12.408,91.818 15.573,91.818 C18.737,91.818 21.303,89.252 21.303,86.087 C21.303,82.923 18.737,80.357 15.573,80.357 C12.408,80.357 9.842,82.923 9.842,86.087" id="Fill-15" fill="#60D6C4" sketch:type="MSShapeGroup"></path>
            <path d="M0.189,101.027 C0.189,104.192 2.754,106.757 5.919,106.757 C9.084,106.757 11.649,104.192 11.649,101.027 C11.649,97.862 9.084,95.297 5.919,95.297 C2.754,95.297 0.189,97.862 0.189,101.027" id="Fill-16" fill="#51D6C2" sketch:type="MSShapeGroup"></path>
            <path d="M38.804,35.471 C38.804,38.636 41.369,41.201 44.534,41.201 C47.699,41.201 50.264,38.636 50.264,35.471 C50.264,32.306 47.699,29.741 44.534,29.741 C41.369,29.741 38.804,32.306 38.804,35.471" id="Fill-17" fill="#60D6C4" sketch:type="MSShapeGroup"></path>
            <path d="M78.782,20.257 C78.782,23.422 76.216,25.987 73.052,25.987 C69.887,25.987 67.322,23.422 67.322,20.257 C67.322,17.093 69.887,14.527 73.052,14.527 C76.216,14.527 78.782,17.093 78.782,20.257" id="Fill-18" fill="#60D6C4" sketch:type="MSShapeGroup"></path>
            <path d="M48.458,20.257 C48.458,23.422 51.023,25.987 54.188,25.987 C57.352,25.987 59.918,23.422 59.918,20.257 C59.918,17.093 57.352,14.527 54.188,14.527 C51.023,14.527 48.458,17.093 48.458,20.257" id="Fill-19" fill="#60D6C4" sketch:type="MSShapeGroup"></path>
            <path d="M58.111,6.532 C58.111,9.697 60.677,12.263 63.842,12.263 C67.006,12.263 69.572,9.697 69.572,6.532 C69.572,3.368 67.006,0.802 63.842,0.802 C60.677,0.802 58.111,3.368 58.111,6.532" id="Fill-20" fill="#60D6C4" sketch:type="MSShapeGroup"></path>
            <path d="M29.495,101.027 C29.495,104.735 26.489,107.74 22.782,107.74 C19.074,107.74 16.068,104.735 16.068,101.027 C16.068,97.319 19.074,94.314 22.782,94.314 C26.489,94.314 29.495,97.319 29.495,101.027" id="Fill-21" fill="#51D6C2" sketch:type="MSShapeGroup"></path>
            <path d="M48.602,105.471 C46.148,108.728 41.518,109.379 38.26,106.925 C35.003,104.47 34.352,99.84 36.807,96.583 C39.261,93.326 43.892,92.675 47.149,95.129 C50.406,97.584 51.057,102.214 48.602,105.471" id="Fill-22" fill="#51D6C2" sketch:type="MSShapeGroup"></path>
            <path d="M67.416,105.471 C64.961,108.728 60.331,109.379 57.074,106.925 C53.817,104.47 53.166,99.84 55.621,96.583 C58.075,93.326 62.705,92.675 65.962,95.129 C69.22,97.584 69.87,102.214 67.416,105.471" id="Fill-23" fill="#51D6C2" sketch:type="MSShapeGroup"></path>
            <path d="M86.229,105.471 C83.775,108.728 79.145,109.379 75.888,106.925 C72.63,104.47 71.98,99.84 74.434,96.583 C76.889,93.326 81.519,92.675 84.776,95.129 C88.033,97.584 88.684,102.214 86.229,105.471" id="Fill-24" fill="#51D6C2" sketch:type="MSShapeGroup"></path>
            <path d="M106.948,101.027 C106.948,104.735 103.942,107.74 100.234,107.74 C96.527,107.74 93.521,104.735 93.521,101.027 C93.521,97.319 96.527,94.314 100.234,94.314 C103.942,94.314 106.948,97.319 106.948,101.027" id="Fill-25" fill="#51D6C2" sketch:type="MSShapeGroup"></path>
            <path d="M78.27,56.24 C75.816,59.497 71.185,60.148 67.928,57.693 C64.671,55.239 64.02,50.609 66.475,47.351 C68.929,44.094 73.56,43.443 76.817,45.898 C80.074,48.352 80.725,52.983 78.27,56.24" id="Fill-26" fill="#39CCB6" sketch:type="MSShapeGroup"></path>
            <path d="M58.841,56.24 C56.387,59.497 51.757,60.148 48.499,57.693 C45.242,55.239 44.592,50.609 47.046,47.351 C49.5,44.094 54.131,43.443 57.388,45.898 C60.645,48.352 61.296,52.983 58.841,56.24" id="Fill-27" fill="#39CCB6" sketch:type="MSShapeGroup"></path>
            <path d="M69.711,35.471 C69.711,39.179 66.705,42.185 62.998,42.185 C59.29,42.185 56.284,39.179 56.284,35.471 C56.284,31.763 59.29,28.758 62.998,28.758 C66.705,28.758 69.711,31.763 69.711,35.471" id="Fill-28" fill="#3CD6BF" sketch:type="MSShapeGroup"></path>
        </g>
    </g>
</svg>