<?xml version="1.0" encoding="utf-8"?>
<!-- Generator: Adobe Illustrator 19.1.0, SVG Export Plug-In . SVG Version: 6.00 Build 0)  -->
<svg version="1.1" id="Layer_1" xmlns="http://www.w3.org/2000/svg" xmlns:xlink="http://www.w3.org/1999/xlink" x="0px" y="0px"
	 viewBox="-536 488.2 234 58.8" style="enable-background:new -536 488.2 234 58.8;" xml:space="preserve">
<style type="text/css">
	.st0{stroke:#000000;stroke-miterlimit:10;}
</style>
<g>
	<g>
		<path class="st0" d="M-509.1,534.9v7.4H-533v-7.4h6.3v-36.4h-6.3v-7.4h22.3l9.1,27.7l10.3-27.7h22.1v7.4h-6.4v36.4h6.4v7.4h-24.5
			v-7.4h7.2v-31.6l-9.9,25.5h-11.4l-8.5-25.2v31.3L-509.1,534.9L-509.1,534.9z"/>
		<path class="st0" d="M-453.7,513.9l-1.1,4.7h-7.5v-13.8h7l0.5,2.3c2.2-1.5,5.4-2.3,8.9-2.3c7.5,0,12.6,3.3,12.6,12.3v15.3
			c0,2.1,0.5,2.9,1.7,2.9c0.7,0,1.6-0.3,2.8-0.8l-0.4,6.6c-1.6,1.1-3.6,1.9-6.4,1.9c-2.8,0-5.7-1.2-6.9-4.1
			c-1.5,1.7-5.3,4.1-10.6,4.1c-7.9,0-12.1-5-12.1-11c0-9.9,9.5-11.9,20-11.9h1.6v-1.5c0-3.9-1.2-5.5-5.8-5.5
			C-451.2,513.1-453.7,513.8-453.7,513.9z M-454.8,531.5c0,1.9,0.9,3.8,4.4,3.8c3.4,0,6.1-2.1,6.9-3v-5.1
			C-452.3,527.3-454.8,529.2-454.8,531.5z"/>
		<path class="st0" d="M-404,541.8c-3.1,0.9-6.9,0.9-7.8,0.9c-9.6,0-11.3-5.8-11.3-11.2v-19.3h-6.2v-6.9h6.2v-11.9h10.2v11.9h10.5
			l-3.3,6.9h-7.2v18.4c0,2.6,0.7,4.2,3.7,4.2c2.6,0,5.4-0.5,5.4-0.5L-404,541.8z"/>
		<path class="st0" d="M-375.5,541.8c-3.1,0.9-6.9,0.9-7.8,0.9c-9.6,0-11.3-5.8-11.3-11.2v-19.3h-6.2v-6.9h6.2v-11.9h10.3v11.9h10.5
			l-3.3,6.9h-7.2v18.4c0,2.6,0.7,4.2,3.7,4.2c2.6,0,5.4-0.5,5.4-0.5L-375.5,541.8z"/>
		<path class="st0" d="M-362.8,526.6c0.4,5.2,3.9,7.8,9.6,7.8c3.5,0,7.6-0.4,13.3-4l-0.2,8.8c-2.2,1.5-7.4,3.7-14.4,3.7
			c-11.1,0-18.8-6.3-18.8-19.3c0-8.6,5-18.9,18-18.9c9.7,0,16.1,6.5,16.1,17v4.9H-362.8z M-362.3,519.9h12.9
			c-0.3-4.5-3.3-7.2-6.4-7.2C-359.1,512.7-362,516.7-362.3,519.9z"/>
		<path class="st0" d="M-307,516.1c-2-0.5-3.7-0.8-5.1-0.8c-2.8,0-5.3,0.9-8.8,3v17.1h6.5v6.9h-21.5v-6.9h4.7v-23.1h-4.7v-6.9h14.8
			c0,0-0.2,2.7-0.3,5.2c2.4-2.3,6.3-5.9,10-5.9c0.9,0,3.4,0.3,5.3,0.9L-307,516.1z"/>
	</g>
</g>
</svg>
