<?xml version="1.0" encoding="UTF-8" standalone="no"?>
<svg width="331px" height="62px" viewBox="0 0 331 62" version="1.1" xmlns="http://www.w3.org/2000/svg" xmlns:xlink="http://www.w3.org/1999/xlink" xmlns:sketch="http://www.bohemiancoding.com/sketch/ns">
    <!-- Generator: Sketch 3.3.3 (12072) - http://www.bohemiancoding.com/sketch -->
    <title>matterlogo-svg</title>
    <desc>Created with Sketch.</desc>
    <defs></defs>
    <g id="Page-1" stroke="none" stroke-width="1" fill="none" fill-rule="evenodd" sketch:type="MSPage">
        <g id="matterlogo" sketch:type="MSLayerGroup" fill="#000000">
            <path d="M58.5604808,60.5706789 L58.5604808,23.1542936 L44.0386731,60.5706789 L33.2917692,60.5706789 L18.9327692,23.1542936 L18.9327692,60.5706789 L0.0630384615,60.5706789 L0.0630384615,0.261321101 L32.7171538,0.261321101 L43.1368462,24.3052477 L53.3921346,0.261321101 L84.241,0.261321101 L84.241,60.5706789 L58.5604808,60.5706789" id="Fill-3" sketch:type="MSShapeGroup"></path>
            <path d="M131.397769,61.5556147 C126.968442,61.5556147 121.8815,59.2568991 119.830442,53.7607339 C117.862385,58.4379817 111.460212,61.5556147 105.637442,61.5556147 C96.5281923,61.5556147 89.2273846,57.4514495 89.2273846,49.8225872 C89.2273846,40.140844 101.206519,35.8738532 117.697981,35.462 L117.697981,28.9808991 C117.697981,27.7485321 116.384346,26.7651927 114.824904,26.7651927 C113.184058,26.7651927 111.872019,27.7485321 111.872019,28.9808991 L111.872019,32.837633 L92.9192885,32.837633 C92.5904808,31.4424404 92.4276731,30.2116697 92.4276731,28.8164771 C92.4276731,20.0382569 102.191346,15.0321651 115.482519,15.0321651 C130.495942,15.0321651 138.783173,21.9251193 138.783173,29.8014128 L138.783173,48.0171376 C138.783173,51.2161835 140.588423,51.7094495 142.966692,49.904 L142.966692,57.1242018 C140.341019,59.996 135.828692,61.5556147 131.397769,61.5556147 L131.397769,61.5556147 Z M117.697981,41.5344404 C112.93825,42.0277064 110.642981,44.8180917 110.642981,47.6052844 C110.642981,49.575156 112.036423,50.8075229 114.170481,50.8075229 C116.219942,50.8075229 117.697981,49.3293211 117.697981,47.5238716 L117.697981,41.5344404 L117.697981,41.5344404 Z" id="Fill-4" sketch:type="MSShapeGroup"></path>
            <path d="M167.081385,61.5556147 C157.644923,61.5556147 150.178115,55.9764404 150.178115,46.0472661 L150.178115,28.6536514 L143.285923,28.6536514 L143.285923,15.9340917 L150.998538,15.9340917 L155.595462,3.4619633 L172.083731,3.4619633 L172.083731,15.9340917 L182.667827,15.9340917 L182.667827,28.6536514 L172.083731,28.6536514 L172.083731,41.3716147 C172.083731,47.6052844 179.714942,47.7697064 182.667827,45.4741835 L182.667827,57.1242018 C180.042154,59.996 171.510712,61.5556147 167.081385,61.5556147" id="Fill-5" sketch:type="MSShapeGroup"></path>
            <path d="M207.685942,61.5556147 C198.251077,61.5556147 190.784269,55.9764404 190.784269,46.0472661 L190.784269,28.6536514 L183.892077,28.6536514 L183.892077,15.9340917 L191.604692,15.9340917 L196.200019,3.4619633 L212.689885,3.4619633 L212.689885,15.9340917 L223.273981,15.9340917 L223.273981,28.6536514 L212.689885,28.6536514 L212.689885,41.3716147 C212.689885,47.6052844 220.321096,47.7697064 223.273981,45.4741835 L223.273981,57.1242018 C220.648308,59.996 212.116865,61.5556147 207.685942,61.5556147" id="Fill-6" sketch:type="MSShapeGroup"></path>
            <path d="M279.057962,40.0594312 L248.454904,40.0594312 L248.454904,44.490844 C248.454904,47.3610459 249.521135,49.575156 252.228212,49.575156 C254.935288,49.575156 256.001519,47.3610459 256.001519,44.490844 L256.001519,43.4213028 L277.991731,45.6386055 C274.627038,55.6475963 265.109173,61.5556147 252.228212,61.5556147 C236.557173,61.5556147 225.317058,53.021633 225.317058,38.5812294 C225.317058,24.2206422 236.557173,15.0321651 252.228212,15.0321651 C267.81625,15.0321651 279.139365,24.2206422 279.139365,38.5812294 C279.139365,38.9084771 279.057962,39.7289908 279.057962,40.0594312 L279.057962,40.0594312 Z M256.001519,32.0985321 C256.001519,29.2267339 254.935288,27.0126239 252.228212,27.0126239 C249.521135,27.0126239 248.454904,29.2267339 248.454904,32.0985321 L248.454904,33.8209725 L256.001519,33.8209725 L256.001519,32.0985321 L256.001519,32.0985321 Z" id="Fill-7" sketch:type="MSShapeGroup"></path>
            <path d="M329.506,34.8889174 L312.277115,34.8889174 C312.277115,31.0321835 311.6195,27.9959633 309.732846,27.9959633 C307.600385,27.9959633 306.451154,28.8164771 305.139115,33.8209725 L305.139115,60.5706789 L283.231904,60.5706789 L283.231904,15.9340917 L304.235692,15.9340917 L304.235692,24.7139083 C306.205346,19.4619817 311.6195,15.0321651 316.870846,15.0321651 C325.9785,15.0321651 330.162019,19.7892294 330.162019,27.8331376 C330.162019,29.6385872 329.916212,32.7546239 329.506,34.8889174" id="Fill-8" sketch:type="MSShapeGroup"></path>
        </g>
    </g>
</svg>