<?xml version="1.0" encoding="UTF-8"?>
<svg width="288px" height="66px" viewBox="0 0 288 66" version="1.1" xmlns="http://www.w3.org/2000/svg" xmlns:xlink="http://www.w3.org/1999/xlink">
    <!-- Generator: Sketch 42 (36781) - http://www.bohemiancoding.com/sketch -->
    <title>Imported Layers Copy</title>
    <desc>Created with Sketch.</desc>
    <defs></defs>
    <g id="Page-1" stroke="none" stroke-width="1" fill="none" fill-rule="evenodd">
        <g id="Imported-Layers-Copy" fill="#FFFFFF">
            <path d="M14.5697097,49.986265 L14.5697097,55.1244796 C14.5697097,63.8047433 14.4967659,52.6751342 14.6084816,61.3540782 C14.6465964,64.3385581 13.5386387,65.5975428 10.5479415,65.4002491 C8.25973935,65.2498043 5.95050838,65.2933541 3.65704905,65.3890317 C1.34387517,65.4860289 0.256946303,64.6473657 0.262860668,62.1696469 C0.312804195,40.5234248 0.293746797,38.0278902 0.307546982,16.382328 C0.307546982,15.9692649 0.460663321,15.5562018 0.669637552,14.502429 C1.91296851,15.482959 2.93286791,16.1401648 3.77665065,16.9761887 C11.7991582,24.9246841 19.8781809,33.4795772 27.7410006,41.5857756 C30.1060895,44.0239037 31.5439373,43.8292493 33.8045391,41.4993359 C41.507671,33.5580988 49.4079483,25.1490314 57.2418534,17.3364642 C58.0810361,16.4997804 58.9813339,15.7251222 60.442182,14.3783781 C60.6163272,15.9719043 60.8167585,16.9517744 60.8174156,17.9323044 C60.8358159,38.809147 60.7944153,40.535302 60.8732735,61.4121446 C60.8844451,64.3128241 60.1037489,65.7704222 56.9625639,65.4061877 C55.2349122,65.2062546 53.4652028,65.3745151 51.7138936,65.3698962 C47.3366063,65.3586788 47.1894043,65.2333082 47.1788899,60.6651998 C47.157861,51.7645478 47.1926901,62.6757482 47.1473466,53.775756 C47.1407751,52.4560656 46.8213994,51.1376949 46.5283097,48.9239142 C44.3524805,50.9628359 42.8469461,52.3161784 41.4058125,53.7361653 C38.5978034,56.5028963 35.7207934,59.210901 33.076415,62.1300562 C31.3553348,64.0297506 30.1336898,64.1518219 28.3258656,62.2151762 C24.9612491,58.6111017 21.3791153,55.212239 17.8732111,51.7421131 C17.1201153,50.9971478 16.308533,50.3122285 15.5238939,49.5995957 C15.2058325,49.7282655 14.8877711,49.8575951 14.5697097,49.986265" id="Fill-1"></path>
            <path d="M104.766405,19.3120407 C106.486171,14.5063881 106.486171,14.5334417 112.064732,14.4984699 C121.316113,14.4404035 119.731063,14.514966 119.771149,22.3598657 C119.836864,35.3258241 119.710034,48.293762 119.84475,61.2584007 C119.877608,64.4282971 118.824851,65.7143354 115.67578,65.3989294 C114.050644,65.2359476 112.393307,65.3171086 110.754371,65.3824332 C107.822817,65.4992258 104.947122,65.6074404 105.357184,61.0663857 C104.305742,61.4081855 103.602589,61.4471164 103.160984,61.8087116 C92.6320995,70.42629 73.4945285,65.0399736 69.7060491,48.2350358 C67.3935324,37.977742 68.6710353,28.7834589 75.8655317,21.0837251 C83.0508281,13.393889 94.5509823,12.5426887 103.108411,18.4331269 C103.615075,18.7815252 104.19994,19.0157702 104.766405,19.3120407 L104.766405,19.3120407 Z M105.474157,40.2608064 C106.256825,34.6692781 100.668407,28.6574284 94.2283209,28.671945 C87.699519,28.6871215 82.7623385,34.6197897 82.7735101,40.2238551 C82.7846817,45.6517418 87.2999708,51.7143996 94.1902061,51.7302359 C101.279558,51.746732 106.243025,45.4056195 105.474157,40.2608064 L105.474157,40.2608064 Z" id="Fill-2"></path>
            <path d="M236.885434,43.2030562 C231.849024,43.2030562 226.812613,43.1515883 221.77686,43.220872 C218.423415,43.2670612 218.274899,44.0410596 219.332256,47.2716618 C221.509399,53.9222416 233.666705,54.7127362 237.529443,49.7704956 C239.188094,47.6490932 241.005118,47.0611712 243.453008,47.1891811 C245.74581,47.309273 248.05307,47.1416723 250.347843,47.2432884 C253.218939,47.3706386 253.885291,48.3584268 252.68796,50.8869537 C248.187129,60.3893845 240.634484,65.5520135 230.177887,65.7407292 C219.62666,65.9314244 211.593638,61.1145544 206.772773,51.6833868 C199.728764,37.9012 206.413968,23.0045345 218.88145,17.0151195 C231.910139,10.7564877 247.521434,16.9563933 253.243911,30.645542 C254.432041,33.4874954 254.600929,36.7722048 255.133879,39.8714978 C255.547884,42.2812525 254.378154,43.2499052 251.993351,43.2149334 C246.958255,43.1410308 241.921845,43.1924987 236.885434,43.1924987 L236.885434,43.2030562 L236.885434,43.2030562 Z M229.528621,35.7151328 C232.038941,35.7151328 234.54926,35.6933579 237.059579,35.7210714 C239.687529,35.7501046 240.17185,34.1961691 239.16575,32.2958149 C237.216639,28.6125589 233.936795,26.8309769 229.795425,26.7577341 C225.520653,26.6818519 222.137636,28.4344007 220.022265,32.1862806 C218.806535,34.3426547 219.713404,35.6227544 222.326239,35.7025957 C224.724842,35.7758385 227.128046,35.7177722 229.528621,35.7151328 L229.528621,35.7151328 Z" id="Fill-3"></path>
            <path d="M176.455081,31.1681394 C176.51751,28.718794 175.448982,27.8827701 173.18838,27.725727 C165.863767,27.2156666 165.867053,27.1754161 165.884139,19.8603721 C165.895311,15.2315579 165.895311,15.2315579 170.688575,15.2157217 C176.416966,15.197246 176.417623,15.197246 176.41828,9.33056224 C176.419595,3.72847641 176.482681,9.72215931 176.391337,4.12205302 C176.349937,1.57505051 177.405979,0.50412174 179.909727,0.592540998 C182.313588,0.67766103 184.725335,0.682279946 187.128538,0.592540998 C189.859003,0.49026499 190.773101,1.81787355 190.734329,4.42162275 C190.643643,10.5713801 190.819102,5.12932779 190.6581,11.2764458 C190.57727,14.3467055 191.806144,15.3133788 194.733097,15.2586116 C202.04851,15.1233433 201.20867,14.7729655 201.261242,21.7864603 C201.267156,22.5551799 201.18567,23.3331374 201.275042,24.0912996 C201.575361,26.6402816 200.418774,27.6194919 197.938683,27.7567397 C190.702129,28.1579256 190.705415,28.2166518 190.705415,35.3713534 C190.705415,44.0489778 190.621957,52.727262 190.750758,61.4022469 C190.795445,64.4302766 189.654629,65.6166783 186.687589,65.4002491 C184.62019,65.2491445 182.519276,65.2207712 180.457134,65.404868 C177.209491,65.69454 176.251364,64.2316632 176.368994,61.1515058 C176.554311,56.3253979 176.41828,51.4874128 176.416966,46.6547065 C176.415652,41.4920776 176.324308,36.3274691 176.455081,31.1681394 Z" id="Fill-4"></path>
            <path d="M137.029923,31.4136019 C137.101553,28.8896939 136.170369,27.8609953 133.675164,27.7164892 C126.430724,27.2961678 126.43401,27.2374415 126.455039,19.7759119 C126.468182,15.2381564 126.468182,15.2374966 131.015014,15.2163815 C131.780596,15.2130823 132.549463,15.1695325 133.311759,15.2216603 C135.942995,15.4024579 137.073295,14.280721 137.023352,11.5522611 C136.910322,5.40316355 137.089724,10.8452159 136.945151,4.69743804 C136.87615,1.7631064 137.836906,0.378091305 140.893975,0.579344094 C143.18152,0.730448647 145.488123,0.665123971 147.783553,0.59781976 C150.291244,0.523917096 151.327572,1.66544931 151.298658,4.17616033 C151.227028,10.4361118 151.366344,5.10293398 151.236228,11.3609059 C151.177742,14.1923017 152.20487,15.2968826 155.060194,15.2553124 C162.706811,15.1431387 161.783513,14.621861 161.826227,22.200843 C161.857771,27.7013127 161.831485,27.7013127 156.126094,27.7376042 C151.395916,27.7679571 151.280915,27.8728725 151.278286,32.4904692 C151.272372,42.0463476 151.191542,51.6035456 151.325601,61.1574444 C151.368973,64.2554176 150.378645,65.6575887 147.173717,65.4055278 C144.890115,65.2260499 142.579569,65.2973132 140.285453,65.387712 C137.902621,65.4807502 136.930036,64.4447932 136.966837,62.0568134 C137.047009,56.8955042 136.991809,51.7322154 136.98918,46.5702463 C136.987209,41.5178115 136.886664,36.4620776 137.029923,31.4136019 Z" id="Fill-5"></path>
            <path d="M274.669027,18.9695811 C278.351047,17.5390366 281.404831,16.1969115 284.562445,15.1794302 C286.819761,14.4516209 288.159036,15.3984988 287.988177,17.99367 C287.909318,19.1972277 287.976348,20.4100231 287.976348,21.6188596 C287.976348,27.4617889 287.976348,27.4617889 282.525275,29.264486 C277.011115,31.0882982 274.385794,34.8969247 274.28065,41.6049111 C274.180106,48.0852509 274.278678,54.5688899 274.241221,61.0505494 C274.218221,64.9799277 273.806844,65.3441622 269.861305,65.370556 C260.417378,65.434561 260.416721,65.434561 260.417378,55.8331534 C260.418035,43.5283599 260.497551,31.2229066 260.362835,18.9194328 C260.330634,15.9996178 261.293361,14.8897581 264.143428,15.1919672 C265.549733,15.3404324 266.986924,15.2586116 268.407685,15.2064838 C271.433869,15.09497 274.611854,14.6647509 274.669027,18.9695811" id="Fill-6"></path>
        </g>
    </g>
</svg>