<?xml version="1.0" encoding="utf-8"?>
<!-- Generator: Adobe Illustrator 16.0.0, SVG Export Plug-In . SVG Version: 6.00 Build 0)  -->
<!DOCTYPE svg PUBLIC "-//W3C//DTD SVG 1.1//EN" "http://www.w3.org/Graphics/SVG/1.1/DTD/svg11.dtd">
<svg version="1.1" id="Layer_1" xmlns="http://www.w3.org/2000/svg" xmlns:xlink="http://www.w3.org/1999/xlink" x="0px" y="0px"
	 width="2500px" height="749px" viewBox="0 0 2500 749" enable-background="new 0 0 2500 749" xml:space="preserve">
<title>background</title>
<title>Layer 1</title>
<path fill="#FFFFFF" d="M889.742,319.286c0-74.365,54.221-126.292,152.755-126.292c60.122,0,109.318,19.196,135.972,38
	c3.814,2.685,10.619,9.199,6.539,21.313c-5.229,13.048-14.819,32.671-21.7,45.418c-4.005,7.428-14.232,6.449-19.472,3.794
	c-18.985-9.62-50.125-25.896-78.73-28.896c-7.244-0.789-14.531-1.104-21.816-0.944c-25.192,0.563-46.24,9.31-53.653,28.531
	c-1.452,3.637-2.262,7.499-2.394,11.412c-0.692,25.329,34.558,34.488,77.261,41.825c79.389,13.601,139.45,36.876,139.45,118.588
	c0,69.392-55.148,132.104-163.203,130.182c-71.233-1.44-121.77-25.51-148.85-48.866c-0.924-0.793-11.232-11.291-5.707-23.918
	c6.324-16.255,16.998-34.884,25.374-44.775c4.657-6.354,16.948-7.362,23.337-3.402c22.322,13.871,59.058,36.113,101.404,37.589
	c3.343,0.115,6.654,0.135,9.906,0.05c38.091-0.924,61.137-15.367,60.654-39.696c-0.411-21.435-30.613-33.956-78.706-43.02
	c-76.703-14.448-138.411-39.731-138.411-116.892 M1586.583,425.172c-54.09,0.708-103.684,15.492-105.114,57.764
	c-0.015,33.544,27.196,50.021,65.387,47.862c36.636-3.528,64.574-19.417,76.885-40.5c4.552-7.813,5.244-37.052,4.968-49.548
	c-0.07-2.66-5.329-7.693-7.633-8.662c-11.493-4.843-19.999-6.339-34.498-6.926 M1406.603,254.843
	c25.293-22.634,75.443-57.864,155.369-56.007c105.475,2.193,161.195,51.641,166.385,169.928
	c2.138,48.78-1.405,184.844-2.248,218.743c-0.126,4.863-1.771,8.226-8.326,8.352c-17.369,0.697-57.497,0.421-75.936,0.181
	c-9.305-0.452-10.384-5.069-10.504-9.902c-0.08-3.161-0.352-12.536-0.547-20.179c-0.105-4.056-3.915-3.94-4.888-2.901
	c-24.742,26.418-65.262,39.175-108.351,39.175c-65.492,0-130.784-38.527-130.583-114.824
	c0.201-78.139,55.605-116.682,116.471-125.77c38.974-5.802,82.906-0.643,116.174,12.576c2.129,0.854,6.475-0.381,6.51-3.397
	c0.135-9.957-0.347-28.932-2.259-37.925c-4.883-22.915-23.999-41.353-64.157-46.322c-8.271-1.019-16.596-1.355-24.932-0.692
	c-31.923,2.509-70.34,27.401-86.249,36.721c-3.744,2.188-9.605,0.587-11.503-1.857c-9.284-11.994-32.62-47.074-34.457-52.68
	c-1.837-5.591,0.753-10.298,4.02-13.239L1406.603,254.843L1406.603,254.843z M1763.135,400.301
	c-0.627-108.979,75.304-200.913,198.6-201.721c76.934-0.501,132.826,34.377,142.682,50.828c2.003,3.864,0.974,7.091-0.411,10.98
	c-6.514,13.751-22.965,40.319-34.688,55.375c-4.993,6.414-10.413,0.919-16.711-3.271c-17.48-11.644-50.692-25.881-83.379-25.881
	c-59.299,0.01-103.457,40.67-102.965,115.477c0.461,71.785,42.758,111.236,103.171,112.666c31.582,0.793,62.18-17.358,78.641-32.229
	c5.169-4.512,10.519-2.254,16.426,2.363c11.593,11.849,28.22,30.142,37.438,42.733c6.037,6.996,1.521,13.841-0.652,16.591
	c-25.013,31.652-73.321,58.291-137.252,58.652c-133.865,0.938-200.271-93.185-200.888-202.549 M2402.132,597.951
	c6.283-0.472,73.336-9.727,93.917-14.438c5.109-1.164,6.926-5.46,4.07-9.716c-11.492-17.234-41.709-66.175-73.356-109.986
	c-29.107-40.284-59.786-75.715-69.708-89.346c-2.418-3.313-2.288-6.574,0.347-9.144c18.875-18.469,97.827-95.879,127.511-127.848
	c11.493-12.436,4.593-17.786-5.169-20.691c-18.854-5.621-49.353-12.627-66.696-16.285c-7.313-1.546-16.119-1.004-22.514,5.57
	c-29.68,27.677-120.259,118.589-147.299,145.764c-4.868,4.903-7.703,3.814-7.729-3.191c-0.221-52.394-1.255-276.713-3.127-313.609
	c-0.13-4.878-5.997-8.582-9.304-8.757c-17.003-0.888-59.957-1.144-76.885-0.15c-4.742,0.537-9.274,5.37-9.686,9.455
	c-3.904,58.998,1.656,492.089,3.975,552.673c0.165,4.381,3.428,7.778,7.588,8.024c16.888,0.979,58.657,0.914,78.159,0.547
	c9.596,0,10.77-6.744,10.77-6.744l1.445-116.215c0,0,0.988-5.169,2.59-6.875c6.875-7.402,25.896-27.788,34.006-35.667
	c1.947-1.893,5.019-1.757,7.006,0.918c9.635,12.998,37.111,55.254,62.581,92.994c23.401,34.668,45.247,65.437,46.772,67.609
	c3.523,5.019,7.639,5.22,10.74,5.124v-0.015H2402.132z M1261.752,597.55c5.896,0.195,50.637,0.146,70.461,0.12
	c6.674,0.131,10.142-4.923,10.363-9.385c4.21-84.944,2.408-489.369-0.251-553.229c-0.222-5.521-2.585-7.593-6.354-8.095
	c-17.013-2.278-65.362-1.747-80.859,2.309c-3.031,0.788-4.817,3.091-4.913,6.052c-3.794,164.608-1.234,544.111-0.432,551.298
	c0.798,7.196,4.563,10.68,11.994,10.931H1261.752L1261.752,597.55z"/>
<path fill="#FFFFFF" d="M64.361,428.655c-27.572,0.211-50.928-16.22-59.54-41.865c-0.319-0.968-0.617-1.943-0.893-2.926
	c-9.385-32.841,8.813-67.198,41.428-78.199l523.133-175.263c6.212-1.797,12.64-2.736,19.106-2.791
	c28.305-0.221,52.303,16.571,61.126,42.758l0.782,2.529c9.786,34.207-14.528,64.739-43.661,74.525
	c-0.021,0.015-5.319,1.807-520.233,177.612C78.766,427.37,71.592,428.592,64.361,428.655z"/>
<path fill="#FFFFFF" d="M151.559,685.931c-27.788,0.201-51.224-15.999-59.736-41.277c-0.323-0.962-0.624-1.931-0.903-2.905
	c-9.515-33.233,8.662-67.951,41.388-78.967l523.153-176.869c6.76-2.258,13.741-3.412,20.762-3.478
	c27.863-0.211,52.344,16.812,60.98,42.376l0.803,2.66c5.054,17.67,2.068,37.528-7.979,53.201
	c-7.487,11.653-31.104,21.911-31.104,21.911L173.781,682.142c-7.162,2.425-14.661,3.707-22.222,3.8V685.931z"/>
<path fill="#FFFFFF" d="M587.048,687.05c-27.817,0.268-52.646-17.404-61.502-43.776L350.951,124.657l-0.873-2.911
	c-9.46-33.072,8.732-67.57,41.337-78.561c6.524-2.193,13.27-3.337,20.06-3.397c10.087-0.075,19.848,2.198,29.042,6.74
	c15.296,7.564,26.944,20.916,32.364,37.097l174.581,518.571l0.507,1.666c9.806,34.337-8.346,68.854-40.951,79.846
	C600.576,685.859,593.838,686.987,587.048,687.05L587.048,687.05z"/>
<path fill="#FFFFFF" d="M327.524,774.403c-27.834,0.265-52.673-17.423-61.527-43.813L91.447,211.994
	c-11.359-33.601,6.672-70.048,40.273-81.407c0.044-0.015,0.087-0.029,0.131-0.044c6.45-2.156,13.198-3.288,19.999-3.353
	c27.823-0.275,52.657,17.399,61.513,43.777l174.555,518.617c11.359,33.601-6.672,70.048-40.273,81.406
	c-0.059,0.02-0.118,0.04-0.176,0.06c-6.438,2.157-13.175,3.287-19.964,3.348h0.02V774.403z"/>
<path fill="#FFFFFF" d="M500.976,570.259l121.739-41.624l-39.797-118.187l-121.881,41.187L500.976,570.259z"/>
<path fill="#FFFFFF" d="M241.853,658.855l121.73-41.618l-40.098-119.091L201.634,539.35L241.853,658.855z"/>
<path fill="#FFFFFF" d="M414.305,312.827l121.75-41.569l-39.33-116.807l-121.976,40.866L414.305,312.827z"/>
<path fill="#FFFFFF" d="M155.152,401.304l121.75-41.568L237.09,241.438l-121.976,40.861L155.152,401.304z"/>
</svg>
