<?xml version="1.0" encoding="UTF-8" standalone="no"?>
<svg width="91px" height="58px" viewBox="0 0 91 58" version="1.1" xmlns="http://www.w3.org/2000/svg" xmlns:xlink="http://www.w3.org/1999/xlink">
    <!-- Generator: Sketch 42 (36781) - http://www.bohemiancoding.com/sketch -->
    <title>Page 1</title>
    <desc>Created with Sketch.</desc>
    <defs>
        <path d="M63.133464,-1.36424e-11 C69.3904819,0.667742211 74.00868,5.79172862 74.00868,12.35475 C74.00868,19.39761 68.6905,24.78332 61.73595,24.78332 C54.78141,24.78332 49.46322,19.39761 49.46322,12.35475 C49.46322,5.79172862 54.0814268,0.667742211 60.3384377,-1.36210837e-11 L63.133464,-7.1033747e-14 L63.133464,-1.36424e-11 Z M30.4061923,-1.36424e-11 C36.6632032,0.667742211 41.28141,5.79172862 41.28141,12.35475 C41.28141,19.39761 35.96322,24.78332 29.00868,24.78332 C22.05413,24.78332 16.73595,19.39761 16.73595,12.35475 C16.73595,5.79172862 21.3541481,0.667742211 27.611166,-1.36352946e-11 L30.4061923,-6.39283196e-14 L30.4061923,-1.36424e-11 Z M0.3723145,52.627425 L0.3723145,47.56904 C0.3723145,38.04046 19.59959,33.06904 29.00868,33.06904 C38.41777,33.06904 57.64504,38.04046 57.64504,47.56904 L57.64504,57.68581 L0.3723145,57.68581 L0.3723145,52.627425 Z M90.37231,57.9261779 L90.37231,47.56904 C90.37231,38.04046 71.14504,33.06904 61.73595,33.06904 C60.50868,33.06904 59.28141,33.06904 57.64504,33.48332 C62.55413,36.79761 65.82686,41.76904 65.82686,47.56904 L65.82686,57.68581 L90.37231,57.9261779 Z" id="path-1"></path>
    </defs>
    <g id="Active" stroke="none" stroke-width="1" fill="none" fill-rule="evenodd">
        <g id="HP---Visual-Design" transform="translate(-906.000000, -4433.000000)">
            <g id="Gives-you-insights" transform="translate(-37.000000, 4006.000000)">
                <g id="Page-1" transform="translate(943.000000, 427.000000)">
                    <mask id="mask-2" fill="white">
                        <use xlink:href="#path-1"></use>
                    </mask>
                    <g id="Clip-2"></g>
                    <polygon id="Fill-1" fill="#EEB900" mask="url(#mask-2)" points="-20.08223 78.64046 110.82687 78.64046 110.82687 -20.78811 -20.08223 -20.78811"></polygon>
                </g>
            </g>
        </g>
    </g>
</svg>