<?xml version="1.0" encoding="UTF-8" standalone="no"?>
<svg width="120px" height="28px" viewBox="0 0 120 28" version="1.1" xmlns="http://www.w3.org/2000/svg" xmlns:xlink="http://www.w3.org/1999/xlink">
    <!-- Generator: Sketch 42 (36781) - http://www.bohemiancoding.com/sketch -->
    <title>Imported Layers Copy</title>
    <desc>Created with Sketch.</desc>
    <defs></defs>
    <g id="Active" stroke="none" stroke-width="1" fill="none" fill-rule="evenodd">
        <g id="HP---Visual-Design" transform="translate(-211.000000, -26.000000)" fill="#FFFFFF">
            <g id="Header/Nav" transform="translate(-10.000000, -22.000000)">
                <g id="Imported-Layers-Copy" transform="translate(221.000000, 48.000000)">
                    <path d="M6.02884539,20.5825797 L6.02884539,22.6983151 C6.02884539,26.2725414 5.99866173,21.6897611 6.04488895,25.263444 C6.06066059,26.4923475 5.60219533,27.0107529 4.36466543,26.9295143 C3.41782318,26.8675665 2.46227933,26.8854988 1.51326167,26.9248954 C0.556086276,26.9648354 0.106322608,26.6195035 0.108769932,25.5992664 C0.129436219,16.6861161 0.121550399,15.658543 0.12726082,6.74566447 C0.12726082,6.57557966 0.190619305,6.40549485 0.277091401,5.97158841 C0.791573178,6.37533605 1.21360051,6.64595021 1.56275199,6.99019534 C4.88241031,10.2631052 8.22545416,13.7857083 11.4790347,17.1235547 C12.4576922,18.1274897 13.0526637,18.047338 13.9880851,17.0879618 C17.175588,13.8180407 20.4446683,10.3554835 23.6862842,7.13854407 C24.0335322,6.79402724 24.4060692,6.4750503 25.0105581,5.92050863 C25.0826182,6.57666646 25.1655552,6.9801424 25.1658272,7.38389004 C25.1734411,15.980237 25.1563098,16.6910067 25.1889408,25.2873537 C25.1935635,26.4817511 24.8705168,27.0819386 23.5707161,26.9319596 C22.8558257,26.8496342 22.1235322,26.918918 21.3988525,26.9170161 C19.5875612,26.9123972 19.5266501,26.860774 19.5222993,24.9797882 C19.5135977,21.3148138 19.5280097,25.807661 19.5092469,22.1429584 C19.5065276,21.5995564 19.3743722,21.0566979 19.2530937,20.1451411 C18.3527506,20.9846971 17.7297708,21.5419558 17.1334396,22.1266563 C15.9715048,23.2658985 14.7810179,24.3809592 13.6867924,25.5829643 C12.9746213,26.3651914 12.469113,26.4154561 11.7210478,25.6180137 C10.3287927,24.1339831 8.84653047,22.7344514 7.3958115,21.305576 C7.08418565,20.9988256 6.74835849,20.7168 6.42368024,20.4233629 C6.29206862,20.4763446 6.160457,20.529598 6.02884539,20.5825797" id="Fill-1"></path>
                    <path d="M43.3516159,7.95201677 C44.0632432,5.97321861 44.0632432,5.98435835 46.371613,5.9699582 C50.1997708,5.94604852 49.5438881,5.97675073 49.5604755,9.20700354 C49.587668,14.5459276 49.5351865,19.8856667 49.5909311,25.2240473 C49.6045273,26.5292988 49.1689038,27.058844 47.86584,26.9289709 C47.1933699,26.8618608 46.5075755,26.89528 45.8293949,26.9221784 C44.6163383,26.9702695 43.4263952,27.0148284 43.5960763,25.1449824 C43.1609966,25.2857235 42.870037,25.3017538 42.6873035,25.4506459 C38.3305239,28.9990606 30.411529,26.7811656 28.8438824,19.8614853 C27.8869789,15.6378938 28.4156008,11.8520125 31.3926338,8.68153387 C34.3658599,5.51513078 39.1245444,5.16463653 42.6655495,7.59011108 C42.8752036,7.73356919 43.1172167,7.83002303 43.3516159,7.95201677 L43.3516159,7.95201677 Z M43.6444789,16.5779791 C43.9683414,14.2755851 41.6558927,11.8001176 38.9910293,11.806095 C36.2894562,11.8123441 34.2464849,14.2552075 34.2511076,16.5627639 C34.2557304,18.797776 36.1241259,21.2941645 38.9752577,21.3006854 C41.9087827,21.3074779 43.962631,18.6964316 43.6444789,16.5779791 L43.6444789,16.5779791 Z" id="Fill-2"></path>
                    <path d="M98.0215589,17.7894937 C95.9375271,17.7894937 93.8534952,17.7683011 91.7697352,17.7968297 C90.3821028,17.8158487 90.3206478,18.134554 90.7581748,19.4648019 C91.6590618,22.203276 96.6896711,22.5287737 98.2880453,20.4937335 C98.9743835,19.6202149 99.7262557,19.3781293 100.739176,19.4308393 C101.687921,19.4802889 102.642649,19.4112768 103.592211,19.4531188 C104.780251,19.5055571 105.055982,19.9122934 104.560535,20.9534515 C102.698122,24.8662172 99.5728901,26.9920055 95.2460222,27.069712 C90.8799972,27.1482336 87.555988,25.1648165 85.5611475,21.2813946 C82.6463853,15.6063765 85.4126765,9.47245539 90.5716344,7.0062257 C95.9628161,4.42914201 102.422662,6.98204431 104.790584,12.6187526 C105.282224,13.7889687 105.352108,15.1414961 105.57264,16.4176755 C105.743952,17.4099275 105.259926,17.8087845 104.273111,17.7943844 C102.189623,17.7639538 100.105591,17.7851465 98.0215589,17.7851465 L98.0215589,17.7894937 L98.0215589,17.7894937 Z M94.9773605,14.7062311 C96.0161133,14.7062311 97.0548662,14.697265 98.093619,14.7086765 C99.1810464,14.7206313 99.381455,14.0807755 98.9651381,13.2982767 C98.1586091,11.7816419 96.8014322,11.0480493 95.087762,11.0178905 C93.3188909,10.9866449 91.9190219,11.7082827 91.0436959,13.2531744 C90.540635,14.1410931 90.9158912,14.668193 91.9970644,14.7010688 C92.98959,14.7312276 93.9840191,14.7073179 94.9773605,14.7062311 L94.9773605,14.7062311 Z" id="Fill-3"></path>
                    <path d="M73.0158955,12.8339398 C73.0417284,11.8253858 72.5995786,11.4811406 71.6641572,11.4164758 C68.633283,11.206451 68.6346427,11.1898772 68.6417127,8.17780027 C68.6463354,6.27181798 68.6463354,6.27181798 70.6297551,6.26529715 C73.0001239,6.25768953 73.0003958,6.25768953 73.0006677,3.84199622 C73.0012116,1.53525499 73.0273163,4.00324207 72.9895188,1.69731595 C72.9723875,0.648550212 73.4093707,0.20757954 74.4454043,0.24398747 C75.4401054,0.279036895 76.4380695,0.280938801 77.4324986,0.24398747 C78.5623462,0.20187382 78.9405937,0.748536168 78.9245501,1.82066819 C78.8870245,4.35292122 78.9596284,2.11207615 78.8930068,4.64324237 C78.8595601,5.90746698 79.3680595,6.3055089 80.5792127,6.28295772 C83.6062799,6.22725902 83.25876,6.08298581 83.280514,8.9708954 C83.2829613,9.28742703 83.2492426,9.60776247 83.2862244,9.91994688 C83.410494,10.9695277 82.9319063,11.372732 81.905662,11.4292458 C78.9112258,11.59444 78.9125854,11.6186213 78.9125854,14.5646749 C78.9125854,18.1378144 78.878051,21.7112255 78.9313482,25.2832781 C78.9498391,26.5301139 78.4777776,27.0186322 77.250037,26.9295143 C76.3945615,26.8672948 75.5252178,26.8556117 74.6719177,26.9314162 C73.3280652,27.0506929 72.9315988,26.4483319 72.9802733,25.1800318 C73.0569562,23.1928109 73.0006677,21.2006994 73.0001239,19.2107615 C72.99958,17.0849731 72.9617825,14.9583696 73.0158955,12.8339398 Z" id="Fill-4"></path>
                    <path d="M56.7020373,12.9350125 C56.7316771,11.8957563 56.3463596,11.4721745 55.313861,11.412672 C52.3161617,11.2395985 52.3175214,11.2154171 52.3262229,8.14302255 C52.3316614,6.27453499 52.3316614,6.27426329 54.2131093,6.26556886 C54.5299018,6.26421035 54.8480538,6.24627809 55.1634866,6.26774246 C56.2522736,6.34218853 56.7199843,5.88029688 56.6993181,4.75681338 C56.652547,2.22483205 56.7267825,4.46567712 56.666959,1.93423919 C56.6384069,0.725984988 57.035961,0.155684655 58.3009553,0.23855345 C59.2475256,0.300772972 60.2019818,0.273874576 61.1518152,0.246161077 C62.1894804,0.215730569 62.6183058,0.685773245 62.6063411,1.71959543 C62.5767013,4.29722252 62.6343494,2.10120811 62.5805083,4.6780201 C62.5563069,5.84388895 62.9813255,6.29871637 64.1628388,6.28159921 C67.3269562,6.23541005 66.9449018,6.02076628 66.9625769,9.14152361 C66.9756293,11.4064229 66.9647523,11.4064229 64.6039009,11.4213664 C62.646586,11.4338647 62.5989991,11.4770651 62.5979114,13.3784285 C62.5954641,17.3132019 62.5620174,21.2485188 62.61749,25.1824771 C62.6354371,26.4581131 62.2256464,27.0354777 60.899469,26.9316879 C59.9545302,26.8577853 58.9984425,26.887129 58.0491529,26.924352 C57.0631535,26.9626618 56.6607047,26.5360913 56.6759325,25.5528055 C56.7091073,23.4275605 56.6862657,21.3015005 56.685178,19.1759838 C56.6843622,17.0955695 56.6427577,15.0137966 56.7020373,12.9350125 Z" id="Fill-5"></path>
                    <path d="M113.656149,7.81100396 C115.179744,7.22195627 116.443378,6.6693165 117.749977,6.2503536 C118.684039,5.95066743 119.238222,6.34055832 119.167521,7.40915823 C119.13489,7.9047408 119.162627,8.40412718 119.162627,8.90188335 C119.162627,11.3077954 119.162627,11.3077954 116.90701,12.0500825 C114.625289,12.801064 113.538949,14.3693219 113.495441,17.131434 C113.453837,19.7998092 113.494626,22.4695429 113.479126,25.1384615 C113.469608,26.7564408 113.299384,26.9064197 111.666747,26.9172878 C107.758915,26.9436428 107.758643,26.9436428 107.758915,22.990122 C107.759187,17.9234423 107.79209,12.856491 107.736345,7.79035469 C107.723021,6.58807791 108.121391,6.13107688 109.300729,6.25551592 C109.882648,6.31664864 110.477348,6.28295772 111.065249,6.26149334 C112.317463,6.21557588 113.632491,6.03842685 113.656149,7.81100396" id="Fill-6"></path>
                </g>
            </g>
        </g>
    </g>
</svg>