<?xml version="1.0" encoding="UTF-8" standalone="no"?>
<svg width="1234px" height="481px" viewBox="0 0 1234 481" version="1.1" xmlns="http://www.w3.org/2000/svg" xmlns:xlink="http://www.w3.org/1999/xlink">
    <!-- Generator: Sketch 42 (36781) - http://www.bohemiancoding.com/sketch -->
    <title>Process</title>
    <desc>Created with Sketch.</desc>
    <defs>
        <circle id="path-1" cx="36" cy="36" r="36"></circle>
        <filter x="-50%" y="-50%" width="200%" height="200%" filterUnits="objectBoundingBox" id="filter-3">
            <feOffset dx="0" dy="0" in="SourceAlpha" result="shadowOffsetOuter1"></feOffset>
            <feGaussianBlur stdDeviation="4.5" in="shadowOffsetOuter1" result="shadowBlurOuter1"></feGaussianBlur>
            <feColorMatrix values="0 0 0 0 0.239215686   0 0 0 0 0.505882353   0 0 0 0 0.647058824  0 0 0 0.2 0" type="matrix" in="shadowBlurOuter1"></feColorMatrix>
        </filter>
        <circle id="path-4" cx="36" cy="36" r="36"></circle>
        <filter x="-50%" y="-50%" width="200%" height="200%" filterUnits="objectBoundingBox" id="filter-6">
            <feOffset dx="0" dy="0" in="SourceAlpha" result="shadowOffsetOuter1"></feOffset>
            <feGaussianBlur stdDeviation="4.5" in="shadowOffsetOuter1" result="shadowBlurOuter1"></feGaussianBlur>
            <feColorMatrix values="0 0 0 0 0.239215686   0 0 0 0 0.505882353   0 0 0 0 0.647058824  0 0 0 0.2 0" type="matrix" in="shadowBlurOuter1"></feColorMatrix>
        </filter>
        <circle id="path-7" cx="36" cy="36" r="36"></circle>
        <filter x="-50%" y="-50%" width="200%" height="200%" filterUnits="objectBoundingBox" id="filter-9">
            <feOffset dx="0" dy="0" in="SourceAlpha" result="shadowOffsetOuter1"></feOffset>
            <feGaussianBlur stdDeviation="4.5" in="shadowOffsetOuter1" result="shadowBlurOuter1"></feGaussianBlur>
            <feColorMatrix values="0 0 0 0 0.239215686   0 0 0 0 0.505882353   0 0 0 0 0.647058824  0 0 0 0.2 0" type="matrix" in="shadowBlurOuter1"></feColorMatrix>
        </filter>
        <circle id="path-10" cx="36" cy="36" r="36"></circle>
        <filter x="-50%" y="-50%" width="200%" height="200%" filterUnits="objectBoundingBox" id="filter-12">
            <feOffset dx="0" dy="0" in="SourceAlpha" result="shadowOffsetOuter1"></feOffset>
            <feGaussianBlur stdDeviation="4.5" in="shadowOffsetOuter1" result="shadowBlurOuter1"></feGaussianBlur>
            <feColorMatrix values="0 0 0 0 0.239215686   0 0 0 0 0.505882353   0 0 0 0 0.647058824  0 0 0 0.2 0" type="matrix" in="shadowBlurOuter1"></feColorMatrix>
        </filter>
        <circle id="path-13" cx="36" cy="36" r="36"></circle>
        <filter x="-50%" y="-50%" width="200%" height="200%" filterUnits="objectBoundingBox" id="filter-15">
            <feOffset dx="0" dy="0" in="SourceAlpha" result="shadowOffsetOuter1"></feOffset>
            <feGaussianBlur stdDeviation="4.5" in="shadowOffsetOuter1" result="shadowBlurOuter1"></feGaussianBlur>
            <feColorMatrix values="0 0 0 0 0.239215686   0 0 0 0 0.505882353   0 0 0 0 0.647058824  0 0 0 0.2 0" type="matrix" in="shadowBlurOuter1"></feColorMatrix>
        </filter>
        <circle id="path-16" cx="36" cy="36" r="36"></circle>
        <filter x="-50%" y="-50%" width="200%" height="200%" filterUnits="objectBoundingBox" id="filter-18">
            <feOffset dx="0" dy="0" in="SourceAlpha" result="shadowOffsetOuter1"></feOffset>
            <feGaussianBlur stdDeviation="4.5" in="shadowOffsetOuter1" result="shadowBlurOuter1"></feGaussianBlur>
            <feColorMatrix values="0 0 0 0 0.239215686   0 0 0 0 0.505882353   0 0 0 0 0.647058824  0 0 0 0.2 0" type="matrix" in="shadowBlurOuter1"></feColorMatrix>
        </filter>
        <circle id="path-19" cx="36" cy="36" r="36"></circle>
        <filter x="-50%" y="-50%" width="200%" height="200%" filterUnits="objectBoundingBox" id="filter-21">
            <feOffset dx="0" dy="0" in="SourceAlpha" result="shadowOffsetOuter1"></feOffset>
            <feGaussianBlur stdDeviation="4.5" in="shadowOffsetOuter1" result="shadowBlurOuter1"></feGaussianBlur>
            <feColorMatrix values="0 0 0 0 0.239215686   0 0 0 0 0.505882353   0 0 0 0 0.647058824  0 0 0 0.2 0" type="matrix" in="shadowBlurOuter1"></feColorMatrix>
        </filter>
        <circle id="path-22" cx="36" cy="36" r="36"></circle>
        <filter x="-50%" y="-50%" width="200%" height="200%" filterUnits="objectBoundingBox" id="filter-24">
            <feOffset dx="0" dy="0" in="SourceAlpha" result="shadowOffsetOuter1"></feOffset>
            <feGaussianBlur stdDeviation="4.5" in="shadowOffsetOuter1" result="shadowBlurOuter1"></feGaussianBlur>
            <feColorMatrix values="0 0 0 0 0.239215686   0 0 0 0 0.505882353   0 0 0 0 0.647058824  0 0 0 0.2 0" type="matrix" in="shadowBlurOuter1"></feColorMatrix>
        </filter>
        <circle id="path-25" cx="36" cy="36" r="36"></circle>
        <filter x="-50%" y="-50%" width="200%" height="200%" filterUnits="objectBoundingBox" id="filter-27">
            <feOffset dx="0" dy="0" in="SourceAlpha" result="shadowOffsetOuter1"></feOffset>
            <feGaussianBlur stdDeviation="4.5" in="shadowOffsetOuter1" result="shadowBlurOuter1"></feGaussianBlur>
            <feColorMatrix values="0 0 0 0 0.239215686   0 0 0 0 0.505882353   0 0 0 0 0.647058824  0 0 0 0.2 0" type="matrix" in="shadowBlurOuter1"></feColorMatrix>
        </filter>
        <circle id="path-28" cx="36" cy="36" r="36"></circle>
        <filter x="-50%" y="-50%" width="200%" height="200%" filterUnits="objectBoundingBox" id="filter-30">
            <feOffset dx="0" dy="0" in="SourceAlpha" result="shadowOffsetOuter1"></feOffset>
            <feGaussianBlur stdDeviation="4.5" in="shadowOffsetOuter1" result="shadowBlurOuter1"></feGaussianBlur>
            <feColorMatrix values="0 0 0 0 0.239215686   0 0 0 0 0.505882353   0 0 0 0 0.647058824  0 0 0 0.2 0" type="matrix" in="shadowBlurOuter1"></feColorMatrix>
        </filter>
        <circle id="path-31" cx="36" cy="36" r="36"></circle>
        <filter x="-50%" y="-50%" width="200%" height="200%" filterUnits="objectBoundingBox" id="filter-33">
            <feOffset dx="0" dy="0" in="SourceAlpha" result="shadowOffsetOuter1"></feOffset>
            <feGaussianBlur stdDeviation="4.5" in="shadowOffsetOuter1" result="shadowBlurOuter1"></feGaussianBlur>
            <feColorMatrix values="0 0 0 0 0.239215686   0 0 0 0 0.505882353   0 0 0 0 0.647058824  0 0 0 0.2 0" type="matrix" in="shadowBlurOuter1"></feColorMatrix>
        </filter>
        <circle id="path-34" cx="36" cy="36" r="36"></circle>
        <filter x="-50%" y="-50%" width="200%" height="200%" filterUnits="objectBoundingBox" id="filter-36">
            <feOffset dx="0" dy="0" in="SourceAlpha" result="shadowOffsetOuter1"></feOffset>
            <feGaussianBlur stdDeviation="4.5" in="shadowOffsetOuter1" result="shadowBlurOuter1"></feGaussianBlur>
            <feColorMatrix values="0 0 0 0 0.239215686   0 0 0 0 0.505882353   0 0 0 0 0.647058824  0 0 0 0.2 0" type="matrix" in="shadowBlurOuter1"></feColorMatrix>
        </filter>
        <circle id="path-37" cx="36" cy="36" r="36"></circle>
        <filter x="-50%" y="-50%" width="200%" height="200%" filterUnits="objectBoundingBox" id="filter-39">
            <feOffset dx="0" dy="0" in="SourceAlpha" result="shadowOffsetOuter1"></feOffset>
            <feGaussianBlur stdDeviation="4.5" in="shadowOffsetOuter1" result="shadowBlurOuter1"></feGaussianBlur>
            <feColorMatrix values="0 0 0 0 0.239215686   0 0 0 0 0.505882353   0 0 0 0 0.647058824  0 0 0 0.2 0" type="matrix" in="shadowBlurOuter1"></feColorMatrix>
        </filter>
    </defs>
    <g id="Active" stroke="none" stroke-width="1" fill="none" fill-rule="evenodd">
        <g id="HP---Visual-Design" transform="translate(-173.000000, -2072.000000)">
            <g id="Insights-take-back-seat" transform="translate(182.000000, 1783.000000)">
                <g id="Process" transform="translate(0.000000, 282.000000)">
                    <g>
                        <text id="Ask-Head-of-HR-for-H" font-family="NunitoSans-SemiBold, Nunito Sans" font-size="12" font-weight="500" fill="#868686">
                            <tspan x="80" y="60">Ask Head of HR </tspan>
                            <tspan x="80" y="76">for HRIS data</tspan>
                        </text>
                        <g id="head-of-d+i" transform="translate(0.000000, 55.000000)">
                            <mask id="mask-5" fill="white">
                                <use xlink:href="#path-4"></use>
                            </mask>
                            <g id="Oval-2" fill-opacity="1" fill="black">
                                <use filter="url(#filter-6)" xlink:href="#path-4"></use>
                            </g>
                            <image id="Bitmap" mask="url(#mask-5)" x="-14" y="-7" width="95" height="82" xlink:href="./head-1.jpg"></image>
                            <!-- <image id="Bitmap" mask="url(#mask-5)" x="-20" y="-5" width="106" height="89" xlink:href="./head-2.jpg"></image> -->
                        </g>
                        <g id="head-of-hr" transform="translate(44.000000, 91.000000)">
                            <mask id="mask-8" fill="white">
                                <use xlink:href="#path-7"></use>
                            </mask>
                            <g id="Oval-2" fill-opacity="1" fill="black">
                                <use filter="url(#filter-9)" xlink:href="#path-7"></use>
                            </g>
                            <image id="Bitmap" mask="url(#mask-8)" x="-14" y="-7" width="95" height="82" xlink:href="./head-2.jpg"></image>
                            <!-- <image id="Bitmap" mask="url(#mask-8)" x="-1" y="0" width="80" height="78" xlink:href=""></image>
                            <image id="Bitmap" mask="url(#mask-8)" x="-16" y="-7" width="107" height="93" xlink:href=""></image> -->
                        </g>
                    </g>
                    <g>
                        <text id="Head-of-HR-meets-wit" font-family="NunitoSans-SemiBold, Nunito Sans" font-size="12" font-weight="500" fill="#868686">
                            <tspan x="126" y="406">Head of HR meets with </tspan>
                            <tspan x="126" y="422">People Analytics to pull data</tspan>
                        </text>
                        <g id="head-of-hr" transform="translate(182.000000, 311.000000)">
                            <!-- lady bottom left -->
                            <mask id="mask-14" fill="white">
                                <use xlink:href="#path-13"></use>
                            </mask>
                            <g id="Oval-2" fill-opacity="1" fill="black">
                                <use filter="url(#filter-15)" xlink:href="#path-13"></use>
                            </g>
                            <image id="Bitmap" mask="url(#mask-14)" x="-14" y="-7" width="95" height="82" xlink:href="./head-2.jpg"></image>
                            <!-- <image id="Bitmap" mask="url(#mask-14)" x="-1" y="0" width="80" height="78" xlink:href=""></image>
                            <image id="Bitmap" mask="url(#mask-14)" x="-16" y="-7" width="107" height="93" xlink:href=""></image> -->
                        </g>
                        <g id="Group-2" transform="translate(119.000000, 286.000000)">
                            <mask id="mask-38" fill="white">
                                <use xlink:href="#path-37"></use>
                            </mask>
                            <g id="Oval-2" fill-opacity="1" fill="black">
                                <use filter="url(#filter-39)" xlink:href="#path-37"></use>
                            </g>
                            <image id="Bitmap" mask="url(#mask-38)" x="-14" y="-7" width="95" height="82" xlink:href="./head-3.jpg"></image>
                            <!-- <image id="Bitmap" mask="url(#mask-38)" x="-5" y="-10" width="96" height="95" xlink:href=""></image> -->
                        </g>
                    </g>
                    <g>
                        <text id="Meet-with-Head-of-HR" font-family="NunitoSans-SemiBold, Nunito Sans" font-size="12" font-weight="500" fill="#868686">
                            <tspan x="443" y="76">Meet with Head of HR to </tspan>
                            <tspan x="443" y="92">discuss D+I needs</tspan>
                        </text>
                        <g id="head-of-hr" transform="translate(360.000000, 31.000000)">
                            <mask id="mask-11" fill="white">
                                <use xlink:href="#path-10"></use>
                            </mask>
                            <g id="Oval-2" fill-opacity="1" fill="black">
                                <use filter="url(#filter-12)" xlink:href="#path-10"></use>
                            </g>
                            <image id="Bitmap" mask="url(#mask-11)" x="-14" y="-7" width="95" height="82" xlink:href="./head-2.jpg"></image>
                            <!-- <image id="Bitmap" mask="url(#mask-11)" x="-1" y="0" width="80" height="78" xlink:href=""></image>
                            <image id="Bitmap" mask="url(#mask-11)" x="-16" y="-7" width="107" height="93" xlink:href=""></image> -->
                        </g>
                    </g>
                    <g>
                        <text id="People-Analytics-pul" font-family="NunitoSans-SemiBold, Nunito Sans" font-size="12" font-weight="500" fill="#868686">
                            <tspan x="474" y="455">People Analytics pulls data, </tspan>
                            <tspan x="474" y="471">shares with Head of HR + </tspan>
                            <tspan x="474" y="487">Head of D+I</tspan>
                        </text>
                        <g id="Group-2" transform="translate(434.000000, 323.000000)">
                            <mask id="mask-2" fill="white">
                                <use xlink:href="#path-1"></use>
                            </mask>
                            <g id="Oval-2" fill-opacity="1" fill="black">
                                <use filter="url(#filter-3)" xlink:href="#path-1"></use>
                            </g>
                            <image id="Bitmap" mask="url(#mask-2)" x="-14" y="-7" width="95" height="82" xlink:href="./head-3.jpg"></image>
                            <!-- <image id="Bitmap" mask="url(#mask-2)" x="-5" y="-10" width="96" height="95" xlink:href="./head-1.jpg"></image> -->
                        </g>
                        <g id="head-of-HR" transform="translate(371.000000, 320.000000)">
                            <mask id="mask-17" fill="white">
                                <use xlink:href="#path-16"></use>
                            </mask>
                            <g id="Oval-2" fill-opacity="1" fill="black">
                                <use filter="url(#filter-18)" xlink:href="#path-16"></use>
                            </g>
                            <image id="Bitmap" mask="url(#mask-17)" x="-14" y="-7" width="95" height="82" xlink:href="./head-2.jpg"></image>
                            <!-- <image id="Bitmap" mask="url(#mask-17)" x="-1" y="0" width="80" height="78" xlink:href=""></image>
                            <image id="Bitmap" mask="url(#mask-17)" x="-16" y="-7" width="107" height="93" xlink:href=""></image> -->
                        </g>
                        <g id="head-of-d+i" transform="translate(391.000000, 372.000000)">
                            <mask id="mask-20" fill="white">
                                <use xlink:href="#path-19"></use>
                            </mask>
                            <g id="Oval-2" fill-opacity="1" fill="black">
                                <use filter="url(#filter-21)" xlink:href="#path-19"></use>
                            </g>
                            <image id="Bitmap" mask="url(#mask-20)" x="-14" y="-7" width="95" height="82" xlink:href="./head-1.jpg"></image>
                            <!-- <image id="Bitmap" mask="url(#mask-20)" x="-20" y="-5" width="106" height="89" xlink:href=""></image> -->
                        </g>
                    </g>
                    <g>
                        <text id="Head-of-D+I-sanitize" font-family="NunitoSans-SemiBold, Nunito Sans" font-size="12" font-weight="500" fill="#868686">
                            <tspan x="789" y="262">Head of D+I sanitizes data and </tspan>
                            <tspan x="789" y="278">reviews it in spreadsheet</tspan>
                        </text>
                        <g id="head-of-d+i" transform="translate(711.000000, 214.000000)">
                            <mask id="mask-23" fill="white">
                                <use xlink:href="#path-22"></use>
                            </mask>
                            <g id="Oval-2" fill-opacity="1" fill="black">
                                <use filter="url(#filter-24)" xlink:href="#path-22"></use>
                            </g>
                            <image id="Bitmap" mask="url(#mask-23)" x="-14" y="-7" width="95" height="82" xlink:href="./head-1.jpg"></image>
                            <!-- <image id="Bitmap" mask="url(#mask-23)" x="-20" y="-5" width="106" height="89" xlink:href=""></image> -->
                        </g>
                    </g>
                    <g>
                        <text id="Multiple-meetings,-h" font-family="NunitoSans-SemiBold, Nunito Sans" font-size="12" font-weight="500" fill="#868686">
                            <tspan x="1012" y="66">Multiple meetings, hours back </tspan>
                            <tspan x="1012" y="82">and forth with PA to understand </tspan>
                            <tspan x="1012" y="98">+ segment data</tspan>
                        </text>
                        <circle id="Oval-4" stroke="#72D5C6" stroke-width="3" stroke-linecap="round" stroke-linejoin="round" stroke-dasharray="1,9" cx="913" cy="74" r="65"></circle>
                        <g id="head-of-d+i" transform="translate(827.000000, 40.000000)">
                            <mask id="mask-29" fill="white">
                                <use xlink:href="#path-28"></use>
                            </mask>
                            <g id="Oval-2" fill-opacity="1" fill="black">
                                <use filter="url(#filter-30)" xlink:href="#path-28"></use>
                            </g>
                            <image id="Bitmap" mask="url(#mask-29)" x="-14" y="-7" width="95" height="82" xlink:href="./head-1.jpg"></image>
                            <!-- <image id="Bitmap" mask="url(#mask-29)" x="-20" y="-5" width="106" height="89" xlink:href=""></image> -->
                        </g>
                        <g id="Group-2" transform="translate(929.000000, 40.000000)">
                            <mask id="mask-35" fill="white">
                                <use xlink:href="#path-34"></use>
                            </mask>
                            <g id="Oval-2" fill-opacity="1" fill="black">
                                <use filter="url(#filter-36)" xlink:href="#path-34"></use>
                            </g>
                            <image id="Bitmap" mask="url(#mask-35)" x="-14" y="-7" width="95" height="82" xlink:href="./head-3.jpg"></image>
                            <!-- <image id="Bitmap" mask="url(#mask-35)" x="-5" y="-10" width="96" height="95" xlink:href=""></image> -->
                        </g>
                    </g>
                    <g>
                        <text id="Possibly-go-back-to" font-family="NunitoSans-SemiBold, Nunito Sans" font-size="12" font-weight="500" fill="#868686">
                            <tspan x="767" y="432">Possibly go back to PA </tspan>
                            <tspan x="767" y="448">to pull further data</tspan>
                        </text>
                        <g id="Group-2" transform="translate(682.000000, 383.000000)">
                            <mask id="mask-32" fill="white">
                                <use xlink:href="#path-31"></use>
                            </mask>
                            <g id="Oval-2" fill-opacity="1" fill="black">
                                <use filter="url(#filter-33)" xlink:href="#path-31"></use>
                            </g>
                            <image id="Bitmap" mask="url(#mask-32)" x="-14" y="-7" width="95" height="82" xlink:href="./head-3.jpg"></image>
                            <!-- <image id="Bitmap" mask="url(#mask-32)" x="-5" y="-10" width="96" height="95" xlink:href=""></image> -->
                        </g>
                    </g>
                    <g>
                        <text id="See-snapshot-graphs" font-family="NunitoSans-SemiBold, Nunito Sans" font-size="12" font-weight="500" fill="#868686">
                            <tspan x="1103" y="346">See snapshot graphs </tspan>
                            <tspan x="1103" y="362">and insights from data</tspan>
                        </text>
                        <g id="head-of-d+i" transform="translate(1022.000000, 302.000000)">
                            <!-- end -->
                            <mask id="mask-26" fill="white">
                                <use xlink:href="#path-25"></use>
                            </mask>
                            <g id="Oval-2" fill-opacity="1" fill="black">
                                <use filter="url(#filter-27)" xlink:href="#path-25"></use>
                            </g>
                            <image id="Bitmap" mask="url(#mask-26)" x="-14" y="-7" width="95" height="82" xlink:href="./head-1.jpg"></image>
                            <!-- <image id="Bitmap" mask="url(#mask-26)" x="-20" y="-5" width="106" height="89" xlink:href=""></image> -->
                        </g>
                    </g>


                    <path d="M133,104.496771 C133,104.496771 221.189997,1.38527716 359.491043,71.3274477" id="Path-2" stroke="#72D5C6" stroke-width="3" stroke-linecap="round" stroke-linejoin="round" stroke-dasharray="1,9"></path>
                    <path d="M214.165647,316.170219 C214.165647,316.170219 332.165647,181.170219 450.165647,316.170219" id="Path-2" stroke="#72D5C6" stroke-width="3" stroke-linecap="round" stroke-linejoin="round" stroke-dasharray="1,9" transform="translate(332.165647, 286.170219) rotate(5.000000) translate(-332.165647, -286.170219) "></path>
                    <path d="M780,225.471455 C780,225.471455 780,134.102731 853.013829,117" id="Path-2" stroke="#72D5C6" stroke-width="3" stroke-linecap="round" stroke-linejoin="round" stroke-dasharray="1,9" transform="translate(816.506914, 171.235728) scale(-1, -1) translate(-816.506914, -171.235728) "></path>
                    <path d="M738,378.093138 C738,378.093138 824.476562,259.534544 1022.82307,303.963301" id="Path-2" stroke="#72D5C6" stroke-width="3" stroke-linecap="round" stroke-linejoin="round" stroke-dasharray="1,9"></path>
                    <path d="M506,337.870789 C506,337.870789 570.590428,241.425727 711.282207,234" id="Path-2" stroke="#72D5C6" stroke-width="3" stroke-linecap="round" stroke-linejoin="round" stroke-dasharray="1,9"></path>
                    <path d="M189,299.496771 C189,299.496771 198.268865,91.5514642 361,85" id="Path-2" stroke="#72D5C6" stroke-width="3" stroke-linecap="round" stroke-linejoin="round" stroke-dasharray="1,9"></path>
                    <path d="M822.651116,74.1206277 C822.651116,74.1206277 699.79038,67.9117165 658.140309,144.584021 C616.490238,221.256325 629.322991,309.480469 692.088616,381.554687" id="Path-3" stroke="#72D5C6" stroke-width="3" stroke-linecap="round" stroke-linejoin="round" stroke-dasharray="1,9"></path>
                    <path d="M1031,36 C1031,31.589 1027.411,28 1023,28 C1018.589,28 1015,31.589 1015,36 C1015,40.411 1018.589,44 1023,44 C1027.411,44 1031,40.411 1031,36 M1033,36 C1033,41.523 1028.523,46 1023,46 C1017.477,46 1013,41.523 1013,36 C1013,30.477 1017.477,26 1023,26 C1028.523,26 1033,30.477 1033,36 M1029,37 C1029,37.552 1028.552,38 1028,38 L1024,38 C1022.895,38 1022,37.105 1022,36 L1022,31 C1022,30.448 1022.448,30 1023,30 C1023.552,30 1024,30.448 1024,31 L1024,35 C1024,35.55 1024.45,36 1025,36 L1028,36 C1028.552,36 1029,36.448 1029,37" id="clock-[#1315]" fill="#6E6EE2"></path>
                    <path d="M491.0004,425.873813 C489.89751,425.873813 489.0006,424.976902 489.0006,423.874013 C489.0006,422.771123 489.89751,421.874213 491.0004,421.874213 C492.10329,421.874213 493.0002,422.771123 493.0002,423.874013 C493.0002,424.976902 492.10329,425.873813 491.0004,425.873813 L491.0004,425.873813 Z M482.140286,427.549645 C481.607339,426.866713 480.9974,426.363764 479.9975,426.139786 L479.9975,421.858214 C480.9974,421.618238 481.719328,421.065293 482.256274,420.308369 L487.078792,423.092091 C486.974803,423.613039 486.969803,424.143986 487.087791,424.70293 L482.140286,427.549645 Z M479.0016,431.9982 C477.89871,431.9982 477.0018,431.10129 477.0018,429.9984 C477.0018,428.89551 477.89871,427.9986 479.0016,427.9986 C480.10449,427.9986 481.0014,428.89551 481.0014,429.9984 C481.0014,431.10129 480.10449,431.9982 479.0016,431.9982 L479.0016,431.9982 Z M476.9978,417.9996 C476.9978,416.89671 477.9977,415.9998 478.9976,415.9998 C481.9973,415.9998 481.9973,419.9994 478.9976,419.9994 C477.9977,419.9994 476.9978,419.10249 476.9978,417.9996 L476.9978,417.9996 Z M491.0004,419.874413 C489.779522,419.874413 488.70063,420.433357 487.966703,421.29527 L482.960204,418.40456 C483.213179,415.918808 481.270373,414 479.0016,414 C476.792821,414 475,415.790821 475,417.9996 C475,419.861414 475.9979,421.411259 477.9977,421.858214 L477.9977,426.139786 C475.9979,426.585741 475,428.136586 475,429.9984 C475,432.207179 476.791821,433.998 479.0006,433.998 C481.362364,433.998 483.325167,431.926207 482.940206,429.39746 L487.9957,426.488751 C488.728627,427.330667 489.79652,427.873613 491.0004,427.873613 C493.209179,427.873613 495,426.082792 495,423.874013 C495,421.665233 493.209179,419.874413 491.0004,419.874413 L491.0004,419.874413 Z" id="share-[#1099]" fill="#6E6EE2"></path>
                    <path d="M95.8728143,29.9400509 C95.8728143,31.0450566 94.9778097,31.9400612 93.872804,31.9400612 C92.7677984,31.9400612 91.8727938,31.0450566 91.8727938,29.9400509 C91.8727938,28.8350453 92.7677984,27.9400407 93.872804,27.9400407 C94.9778097,27.9400407 95.8728143,28.8350453 95.8728143,29.9400509 M90.8727887,29.9400509 C90.8727887,31.0450566 89.9777841,31.9400612 88.8727784,31.9400612 C87.7677728,31.9400612 86.8727682,31.0450566 86.8727682,29.9400509 C86.8727682,28.8350453 87.7677728,27.9400407 88.8727784,27.9400407 C89.9777841,27.9400407 90.8727887,28.8350453 90.8727887,29.9400509 M85.8727631,29.9400509 C85.8727631,31.0450566 84.9777585,31.9400612 83.8727528,31.9400612 C82.7677471,31.9400612 81.8727426,31.0450566 81.8727426,29.9400509 C81.8727426,28.8350453 82.7677471,27.9400407 83.8727528,27.9400407 C84.9777585,27.9400407 85.8727631,28.8350453 85.8727631,29.9400509 M96.4418172,38.0000922 C96.4418172,38.0000922 93.8258038,37.2570884 92.0187945,37.2570884 C90.544787,37.2570884 90.2087853,37.5180898 88.9577789,37.5180898 C84.877758,37.5180898 81.5817411,34.5080743 81.0757385,30.8510556 C80.403735,25.9970307 84.2687548,21.9990102 88.9577789,22.0000102 C92.9007991,22.0000102 96.002815,24.7030241 96.7328187,28.0830414 C97.0008201,29.3180477 96.9738199,30.544054 96.6548183,31.7260601 C96.2748164,33.1310673 96.2918164,34.7110754 96.7038186,36.2940835 C96.9148196,37.1030876 97.3028216,38.0000922 96.4418172,38.0000922 M98.9178299,36.8590864 C98.9178299,36.8590864 98.6408285,35.7940809 98.6398285,35.7900809 C98.3368269,34.630075 98.2718266,33.4050687 98.5848282,32.2480628 C98.9708302,30.8220554 99.0358305,29.2680475 98.6878287,27.6600392 C97.767824,23.4050174 93.861804,20 88.9577789,20 C82.9997483,19.999 78.2647241,25.1270263 79.0947283,31.125057 C79.7367316,35.7660808 83.8707528,39.5181 88.9577789,39.5181 C90.4267864,39.5181 90.7227879,39.2570987 92.0197946,39.2570987 C93.5838026,39.2570987 95.7958139,39.9191021 95.7958139,39.9191021 C97.6838236,40.3921045 99.3998324,38.7100959 98.9178299,36.8590864" id="message_three_points-[#1560]" fill="#6E6EE2"></path>
                    <path d="M1114,325 C1114,325.552 1113.552,326 1113,326 C1112.448,326 1112,325.552 1112,325 L1112,311 C1112,310.448 1112.448,310 1113,310 C1113.552,310 1114,310.448 1114,311 L1114,325 Z M1114,308 L1112,308 C1110.895,308 1110,308.895 1110,310 L1110,326 C1110,327.105 1110.895,328 1112,328 L1114,328 C1115.105,328 1116,327.105 1116,326 L1116,310 C1116,308.895 1115.105,308 1114,308 L1114,308 Z M1107,325 C1107,325.552 1106.552,326 1106,326 C1105.448,326 1105,325.552 1105,325 L1105,315 C1105,314.448 1105.448,314 1106,314 C1106.552,314 1107,314.448 1107,315 L1107,325 Z M1107,312 L1105,312 C1103.895,312 1103,312.895 1103,314 L1103,326 C1103,327.105 1103.895,328 1105,328 L1107,328 C1108.105,328 1109,327.105 1109,326 L1109,314 C1109,312.895 1108.105,312 1107,312 L1107,312 Z M1121,325 C1121,325.552 1120.552,326 1120,326 C1119.448,326 1119,325.552 1119,325 L1119,321 C1119,320.448 1119.448,320 1120,320 C1120.552,320 1121,320.448 1121,321 L1121,325 Z M1121,318 L1119,318 C1117.895,318 1117,318.895 1117,320 L1117,326 C1117,327.105 1117.895,328 1119,328 L1121,328 C1122.105,328 1123,327.105 1123,326 L1123,320 C1123,318.895 1122.105,318 1121,318 L1121,318 Z" id="stats-[#1371]" fill="#6E6EE2"></path>
                    <path d="M785,404 L781.288,404 C781.155,404 781.028,404.053 780.934,404.146 L779.533,405.548 C779.302,405.779 778.914,405.729 778.748,405.447 C776.527,401.655 776.847,402.202 776.413,401.46 C776.082,400.895 775.306,400.796 774.843,401.259 L774.344,401.757 L774.352,401.771 L772.269,403.854 C772.175,403.947 772.048,404 771.915,404 L769,404 L769,398 C769,397.448 769.448,397 770,397 L784,397 C784.552,397 785,397.448 785,398 L785,404 Z M785,412 C785,412.552 784.552,413 784,413 L770,413 C769.448,413 769,412.552 769,412 L769,406 L772.745,406 C772.878,406 773.005,405.947 773.099,405.854 L774.939,404.013 C775.17,403.781 775.558,403.831 775.724,404.114 C777.922,407.866 777.484,407.115 778.043,408.078 C778.372,408.645 779.149,408.747 779.613,408.284 L781.761,406.146 C781.854,406.052 781.981,406 782.113,406 L785,406 L785,412 Z M785,395 L769,395 C767.895,395 767,395.895 767,397 L767,413 C767,414.104 767.895,415 769,415 L785,415 C786.105,415 787,414.104 787,413 L787,397 C787,395.895 786.105,395 785,395 L785,395 Z" id="stats-[#1191]" fill="#6E6EE2"></path>
                    <path d="M144,378 L140.288,378 C140.155,378 140.028,378.053 139.934,378.146 L138.533,379.548 C138.302,379.779 137.914,379.729 137.748,379.447 C135.527,375.655 135.847,376.202 135.413,375.46 C135.082,374.895 134.306,374.796 133.843,375.259 L133.344,375.757 L133.352,375.771 L131.269,377.854 C131.175,377.947 131.048,378 130.915,378 L128,378 L128,372 C128,371.448 128.448,371 129,371 L143,371 C143.552,371 144,371.448 144,372 L144,378 Z M144,386 C144,386.552 143.552,387 143,387 L129,387 C128.448,387 128,386.552 128,386 L128,380 L131.745,380 C131.878,380 132.005,379.947 132.099,379.854 L133.939,378.013 C134.17,377.781 134.558,377.831 134.724,378.114 C136.922,381.866 136.484,381.115 137.043,382.078 C137.372,382.645 138.149,382.747 138.613,382.284 L140.761,380.146 C140.854,380.052 140.981,380 141.113,380 L144,380 L144,386 Z M144,369 L128,369 C126.895,369 126,369.895 126,371 L126,387 C126,388.104 126.895,389 128,389 L144,389 C145.105,389 146,388.104 146,387 L146,371 C146,369.895 145.105,369 144,369 L144,369 Z" id="stats-[#1191]" fill="#6E6EE2"></path>
                    <path d="M458.178403,36.8843436 C453.888291,33.1345922 447.235986,35.2562277 445.759241,40.8175447 C445.139128,43.1515432 445.737378,44.2352921 445.737378,45.9870372 C445.737378,47.7876358 445,50.3958117 445,50.3958117 C445,50.7148546 445.283225,51.0259215 445.632039,50.9351937 C446.879222,50.6091717 448.862789,49.9641067 451.234922,50.6081747 C459.211925,52.7706875 464.330841,42.261214 458.178403,36.8843436 M464.447113,55 C464.395437,55 464.341773,54.9930209 464.287115,54.9790628 C457.980642,53.3958123 458.403989,55.1744766 454.899951,54.237288 C453.839597,53.9541374 452.874645,53.4436687 452.041864,52.7816546 C458.405976,53.5613158 463.710728,48.0169479 462.771614,41.4875349 C463.732591,42.4875351 464.438169,43.7258204 464.7363,45.1126602 C465.584981,49.0488523 463.430484,48.3828502 464.983749,54.3649052 C465.075176,54.7148554 464.765119,55 464.447113,55" id="messages_chat-[#1557]" fill="#6E6EE2"></path>
                    <path d="M808.725,234.148 L803.275,228.363 C803.086,228.164 802.824,228 802.55,228 L791,228 C789.896,228 789,229 789,230.104 L789,237.104 C789,237.656 789.448,238.104 790,238.104 C790.553,238.104 791,237.656 791,237.104 L791,231.104 C791,230.552 791.448,230 792,230 L801,230 L801,234.104 C801,235.209 801.896,236 803,236 L807,236 L807,237.104 C807,237.656 807.448,238.104 808,238.104 C808.553,238.104 809,237.656 809,237.104 L809,234.837 C809,234.58 808.902,234.334 808.725,234.148 L808.725,234.148 Z M803,247.052 C803,247.047 803.003,247.043 803.003,247.039 C803.003,247.034 803,247.03 803,247.026 L803,247.052 Z M801,240 L798,240 C796.896,240 796,241 796,242.104 L796,243.104 C796,244.209 796.896,245 798,245 L799.5,245 C799.776,245 800,245.223 800,245.5 C800,245.776 799.776,246 799.5,246 L797,246 C796.453,246 796.01,246.492 796.003,247.039 C796.01,247.584 796.453,248 797,248 L800,248 L800.021,248 C801.114,248 802,247.218 802,246.125 L802,245.083 C802,243.99 801.114,243 800.021,243 L800,243 L798.5,243 C798.224,243 798,242.776 798,242.5 C798,242.223 798.224,242 798.5,242 L801,242 C801.553,242 802,241.604 802,241.052 L802,241.026 C802,240.473 801.553,240 801,240 L801,240 Z M806.2502,245.9995 L805.7502,245.9995 L805.0002,239.9995 L803.0002,239.9995 L804.0002,247.9995 L805.0002,247.9995 L806.0002,247.9995 L807.0002,247.9995 L808.0002,247.9995 L809.0002,239.9995 L807.0002,239.9995 L806.2502,245.9995 Z M796,247.052 C796,247.047 796.003,247.043 796.003,247.039 C796.003,247.034 796,247.03 796,247.026 L796,247.052 Z M795,241.026 L795,241.052 C795,241.604 794.553,242 794,242 L793,242 C791.786,242 790.824,243.082 791.028,244.335 C791.187,245.319 792.111,246 793.107,246 L794,246 C794.553,246 795,246.473 795,247.026 L795,247.052 C795,247.604 794.553,248 794,248 L793.172,248 C791.083,248 789.217,246.472 789.019,244.392 C788.792,242.007 790.661,240 793,240 L794,240 C794.553,240 795,240.473 795,241.026 L795,241.026 Z" id="file_css-[#1767]" fill="#6E6EE2"></path>
                </g>
            </g>
        </g>
    </g>
</svg>
